<svg width="94" height="94" viewBox="0 0 94 94" fill="none" xmlns="http://www.w3.org/2000/svg">
<g clip-path="url(#clip0_63_438)">
<path d="M0 81.3209C0.490477 78.2064 2.32977 75.8031 4.09549 73.3507C11.6488 62.7809 19.2022 52.2111 26.731 41.6168C27.0989 41.1263 27.2951 40.3906 27.3196 39.7775C27.3686 33.9163 27.3441 28.0306 27.3441 22.1694C27.3441 21.8015 27.3441 21.4582 27.3441 21.0413C26.7555 20.9677 26.2405 20.9677 25.7501 20.8696C22.7582 20.232 20.7717 17.5343 21.066 14.567C21.3848 11.5015 23.8127 9.2698 26.9517 9.24527C32.6413 9.22075 38.3308 9.24527 44.0204 9.24527C47.0123 9.24527 50.0042 9.22075 53.0206 9.24527C56.0616 9.29432 58.5385 11.575 58.8082 14.4689C59.078 17.6079 57.1897 20.232 54.1487 20.8696C53.7563 20.9432 53.3639 20.9677 52.898 21.0413C52.8735 21.3846 52.8489 21.7034 52.8489 22.0222C52.8489 28.006 52.8244 34.0144 52.8735 39.9982C52.8735 40.5377 53.0942 41.1508 53.3885 41.5677C61.5059 52.9959 69.6723 64.424 77.8142 75.8521C81.2721 80.6833 80.7816 86.8388 76.6861 90.8117C74.5771 92.8472 72.0266 93.9753 69.0837 93.9753C49.7589 93.9998 30.4096 93.9998 11.0848 93.9753C5.78763 93.9753 1.20167 90.0024 0.220715 84.7788C0.171667 84.5336 0.0980955 84.3129 0.0245239 84.0921C0 83.1602 0 82.2283 0 81.3209ZM62.5113 60.7454C62.3642 60.819 62.2416 60.868 62.1435 60.9416C55.1787 66.2142 45.0504 65.6257 38.6006 59.1759C35.2899 55.8897 31.1944 54.6144 26.5839 55.3011C22.9543 55.8406 19.8889 57.4347 17.7062 60.5737C13.6353 66.4104 9.46622 72.1981 5.32168 77.9857C3.45787 80.5852 3.06548 83.3074 4.53692 86.1767C6.00835 89.0705 8.48526 90.3457 11.7224 90.3457C30.6303 90.3457 49.5137 90.3457 68.4216 90.3457C71.6097 90.3457 74.0621 89.0705 75.5581 86.2257C77.0295 83.3809 76.6861 80.6097 74.8469 78.0347C72.8604 75.2881 70.8985 72.5169 68.9366 69.7457C66.7785 66.7292 64.6449 63.7618 62.5113 60.7454ZM60.3042 57.729C60.059 57.3856 59.9118 57.1159 59.7402 56.8706C56.4294 52.2356 53.1432 47.6006 49.8325 42.9901C49.342 42.3035 49.1213 41.6168 49.1213 40.783C49.1458 34.5539 49.1213 28.3003 49.1213 22.0713C49.1213 21.7279 49.1213 21.3601 49.1213 21.0167C42.9903 21.0167 37.031 21.0167 30.9737 21.0167C30.9737 21.4091 30.9737 21.7524 30.9737 22.0713C30.9737 27.1477 30.7775 32.2241 31.0472 37.3006C31.2189 40.6113 30.4341 43.3335 28.276 45.8594C26.6574 47.7478 25.3332 49.9059 23.8127 52.064C24.107 52.0149 24.2296 52.0149 24.3767 51.9904C31.0227 50.568 36.7368 52.2356 41.6415 56.9687C44.3146 59.5437 47.5518 60.819 51.2549 60.868C54.5901 60.868 57.6066 59.8625 60.3042 57.729ZM39.8268 17.2891C41.7151 17.2891 43.628 17.2891 45.5163 17.2891C47.9932 17.2891 50.4701 17.3136 52.947 17.2891C54.2223 17.2646 55.1051 16.3817 55.1297 15.1555C55.1542 13.9539 54.3204 13.022 53.0697 12.8993C52.898 12.8748 52.7018 12.8993 52.5301 12.8993C44.1184 12.8993 35.7068 12.8993 27.3196 12.8993C26.9272 12.8993 26.5103 12.9484 26.1424 13.071C25.1615 13.3898 24.622 14.3462 24.7201 15.3762C24.8427 16.4062 25.6029 17.191 26.6329 17.2891C26.9272 17.3136 27.246 17.3136 27.5403 17.3136C31.6358 17.2891 35.7313 17.2891 39.8268 17.2891Z" fill="#2AB4AE"/>
<path d="M87.7465 0C87.9427 0.0735716 88.1389 0.147143 88.3351 0.196191C93.7303 1.49596 95.8639 8.09288 92.0872 12.1638C89.2179 15.2784 86.177 18.2703 83.087 21.1886C80.2422 23.8372 75.7543 23.592 73.0567 20.8453C70.3346 18.0986 70.1874 13.6353 72.8605 10.815C75.7543 7.77407 78.7708 4.88025 81.7382 1.91286C82.7927 0.858335 84.166 0.44143 85.5394 0.0245239C86.2751 0 87.0108 0 87.7465 0ZM81.3703 7.6024C83.0379 9.27002 84.7301 10.9622 86.4958 12.7524C87.256 11.9676 88.0653 11.1338 88.8746 10.3C89.0953 10.0793 89.316 9.8586 89.4877 9.63788C90.6894 8.14193 90.5422 6.0574 89.1934 4.73311C87.8691 3.43334 85.7601 3.2862 84.3622 4.53692C83.2832 5.46882 82.3267 6.59692 81.3703 7.6024ZM83.4794 15.5236C81.7872 13.8315 80.0951 12.1393 78.3784 10.4472C77.5201 11.3055 76.4901 12.2374 75.5827 13.2674C74.2829 14.7143 74.332 16.8969 75.6562 18.2458C76.956 19.5946 79.1386 19.7662 80.561 18.5155C81.6646 17.5591 82.5965 16.431 83.4794 15.5236Z" fill="#2AB4AE"/>
<path d="M87.207 47.4045C87.0353 50.2002 85.7355 52.4809 82.9889 53.7807C80.2177 55.0805 77.4465 54.8107 75.1903 52.7507C71.9777 49.8078 68.8631 46.6933 65.9203 43.4807C63.2962 40.6114 63.6641 36.1235 66.4843 33.4749C69.28 30.8509 73.6698 30.7773 76.4655 33.4504C79.4329 36.3197 82.3267 39.2626 85.2205 42.2054C86.5694 43.5543 87.1579 45.2709 87.207 47.4045ZM79.7517 41.8376C77.986 43.6033 76.2939 45.2954 74.5772 47.0121C75.46 47.895 76.3919 48.925 77.3974 49.8569C78.8689 51.2302 81.0515 51.1567 82.4493 49.7588C83.8227 48.3609 83.8963 46.1783 82.5474 44.7069C81.6401 43.6769 80.6346 42.745 79.7517 41.8376ZM71.806 43.9712C73.4 42.3526 75.0922 40.6604 76.8089 38.9438C75.9015 38.0364 74.945 37.0064 73.915 36.0499C72.4927 34.7747 70.3591 34.8483 69.0103 36.1235C67.7105 37.3497 67.4162 39.5078 68.5688 40.8566C69.5498 42.0583 70.8005 43.0147 71.806 43.9712Z" fill="#2AB4AE"/>
<path d="M57.5331 81.5416C54.2714 81.5416 51.6228 78.9176 51.6228 75.6804C51.6228 72.4188 54.2959 69.7457 57.5821 69.7702C60.8193 69.7947 63.4678 72.4678 63.4433 75.705C63.4188 78.9421 60.7947 81.5416 57.5331 81.5416Z" fill="#2AB4AE"/>
<path d="M24.769 66.2145C24.769 63.7621 26.7555 61.8492 29.2324 61.8738C31.6357 61.8983 33.5731 63.9092 33.5731 66.2881C33.5486 68.6669 31.5621 70.6533 29.1833 70.6778C26.7309 70.6533 24.7445 68.6669 24.769 66.2145Z" fill="#2AB4AE"/>
<path d="M40.5134 81.5665C40.5134 79.9724 41.7641 78.7217 43.3582 78.7217C44.9277 78.7217 46.2275 80.0214 46.2275 81.5665C46.2275 83.1115 44.9032 84.4357 43.3582 84.4357C41.7887 84.4357 40.5134 83.136 40.5134 81.5665Z" fill="#2AB4AE"/>
<path d="M18.5156 76.735C18.5156 75.1654 19.7909 73.8657 21.3359 73.8412C22.8809 73.8166 24.2052 75.1409 24.2297 76.6859C24.2542 78.2309 22.9544 79.5552 21.3849 79.5552C19.7909 79.5797 18.5156 78.3045 18.5156 76.735Z" fill="#2AB4AE"/>
</g>
<defs>
<clipPath id="clip0_63_438">
<rect width="94" height="94" fill="white"/>
</clipPath>
</defs>
</svg>
