<svg width="94" height="94" viewBox="0 0 94 94" fill="none" xmlns="http://www.w3.org/2000/svg">
<g clip-path="url(#clip0_209_656)">
<path d="M14.8309 56.9808C15.9835 55.8409 17.1104 54.701 18.2374 53.5865C21.6439 50.1921 25.7675 48.4949 30.6338 48.4949C40.1873 48.4949 49.7407 48.5456 59.2942 48.4696C62.5726 48.4443 65.3643 49.1789 67.3365 52.0666C68.8989 50.6481 70.3844 49.2802 71.8699 47.9123C74.8666 45.1766 77.812 42.3648 80.8855 39.6797C83.2419 37.6279 86.008 37.2733 88.8254 38.6158C91.694 39.9584 93.0514 42.3648 93.0258 45.4806C93.0002 46.8991 92.5136 48.2163 91.6684 49.3562C86.8532 55.9423 82.1149 62.5537 77.2229 69.0891C73.8677 73.5727 69.2318 75.7765 63.5971 75.8018C55.4523 75.8525 47.3076 75.8271 39.1628 75.8018C37.7285 75.8018 36.4735 76.2324 35.4234 77.3217C35.5258 77.499 35.6283 77.651 35.7307 77.8029C36.9601 79.7281 36.8064 81.9319 35.2185 83.5531C32.939 85.8582 30.6338 88.138 28.3031 90.3925C27.5347 91.1271 26.6639 91.1777 25.998 90.5445C25.332 89.9112 25.3833 88.9993 26.1516 88.214C28.3031 86.0609 30.4802 83.9331 32.6572 81.7799C33.7329 80.716 33.7329 80.0068 32.6828 78.9682C26.1773 72.5341 19.6717 66.1 13.1661 59.6659C12.0904 58.602 11.3733 58.602 10.3231 59.6659C8.27414 61.6671 6.25076 63.6936 4.22737 65.6947C4.0737 65.8467 3.92002 66.024 3.74073 66.1507C2.94675 66.8599 2.07592 66.8853 1.43561 66.2267C0.820911 65.5934 0.846524 64.7575 1.56367 64.0229C2.40888 63.1616 3.27971 62.3257 4.12492 61.4644C5.40554 60.1979 6.71178 58.906 7.9924 57.6394C10.1182 55.5623 12.1416 55.3343 14.8309 56.9808ZM33.2975 75.0925C35.2185 73.1674 37.6516 72.7367 40.2897 72.7621C48.0503 72.8381 55.8109 72.8127 63.5715 72.7874C68.2073 72.7621 72.0236 70.9382 74.7897 67.2399C79.6049 60.7805 84.3176 54.2451 89.0559 47.735C90.439 45.8605 90.1828 43.5047 88.5436 42.0609C86.8788 40.5917 84.3944 40.5663 82.704 42.1115C78.0937 46.3165 73.4835 50.5468 68.8733 54.8024C68.6427 55.005 68.4378 55.385 68.4635 55.6636C68.7452 59.6406 65.4668 63.7696 60.3187 63.6936C55.5804 63.5922 50.8677 63.6682 46.1294 63.6682C45.8476 63.6682 45.5403 63.6936 45.2586 63.6429C44.439 63.4909 43.9267 62.9843 43.9267 62.1484C43.9267 61.3124 44.4133 60.8058 45.2586 60.6538C45.5403 60.6032 45.822 60.6285 46.1294 60.6285C50.9445 60.6285 55.7853 60.6285 60.6004 60.6285C62.3165 60.6285 63.7251 59.9699 64.6472 58.526C65.5949 57.0568 65.6717 55.4863 64.8265 53.9411C63.9557 52.3199 62.5214 51.5347 60.6773 51.5347C50.4835 51.5347 40.2897 51.5347 30.096 51.5347C29.6093 51.5347 29.1483 51.5853 28.6617 51.636C23.4623 52.1426 20.2608 55.6383 17.0592 59.0833C22.4891 64.4282 27.8421 69.7224 33.2975 75.0925Z" fill="#2AB4AE"/>
<path d="M84.5992 19.5161C82.7295 21.3653 80.9622 23.1131 79.0925 24.9876C78.1705 24.0757 77.1716 23.0878 76.1727 22.0746C74.9177 20.8333 74.303 20.8333 73.048 22.0999C72.0747 23.0878 71.1014 24.101 70.0001 25.2156C68.9244 24.101 67.9511 23.0878 66.9778 22.0999C65.6972 20.808 65.1081 20.8333 63.8019 22.1252C62.7518 23.1638 61.7529 24.2024 60.6772 25.1903C60.3698 25.4689 59.8576 25.6969 59.4478 25.6969C55.9645 25.7475 52.4812 25.7475 48.9979 25.6969C47.8965 25.6716 47.2562 26.0769 46.744 27.0648C43.4656 33.5748 36.7551 36.8425 30.352 36.2599C22.8219 35.576 17.1359 30.7124 15.2918 23.6704C12.8074 14.0953 19.5691 4.3175 29.5068 3.12694C36.6783 2.26568 43.44 5.7867 46.6927 12.1954C47.2306 13.2594 47.9221 13.614 49.1003 13.614C58.5513 13.5887 68.0279 13.614 77.4789 13.5633C78.2985 13.5633 78.8364 13.7913 79.3743 14.3739C81.1159 16.1471 82.9088 17.8443 84.5992 19.5161ZM25.5368 13.7153C22.2328 13.7153 19.5179 16.3751 19.5179 19.6174C19.4923 22.9611 22.2072 25.6462 25.5881 25.6462C28.8665 25.6462 31.5558 22.9611 31.5814 19.7188C31.5558 16.4004 28.8665 13.7153 25.5368 13.7153Z" fill="#2AB4AE"/>
</g>
<defs>
<clipPath id="clip0_209_656">
<rect width="92" height="88" fill="white" transform="translate(1 3)"/>
</clipPath>
</defs>
</svg>
