<svg width="94" height="94" viewBox="0 0 94 94" fill="none" xmlns="http://www.w3.org/2000/svg">
<g clip-path="url(#clip0_208_434)">
<path d="M64.0426 29.9644C64.0692 33.6062 64.1758 37.248 63.1101 40.7827C60.606 49.0839 55.2247 54.5733 47.1793 57.5457C46.7531 57.7064 46.167 57.6796 45.7408 57.5189C36.6298 54.0646 30.9821 47.5843 29.2771 37.8906C28.9308 35.8823 29.0107 33.7668 28.9575 31.7049C28.9042 29.2949 28.9841 26.8849 28.9308 24.5016C28.9042 23.4573 29.3038 22.8414 30.2895 22.4397C35.3777 20.4046 40.4394 18.3159 45.5543 16.3344C46.1137 16.1201 46.8863 16.0933 47.4457 16.3076C52.534 18.2891 57.5956 20.3778 62.6839 22.413C63.643 22.7878 64.0958 23.4037 64.0692 24.4481C64.0159 26.2958 64.0426 28.1167 64.0426 29.9644ZM43.1833 38.1049C42.837 37.5693 42.6239 37.1676 42.3575 36.8463C42.0644 36.4982 41.7181 36.1768 41.3718 35.8555C40.5726 35.1325 39.7201 35.079 39.0541 35.7216C38.3614 36.3911 38.3881 37.3015 39.1606 38.1049C40.0931 39.0957 41.0787 40.0597 42.0378 40.9969C42.9702 41.9073 43.6895 41.9073 44.6219 40.9969C47.6855 37.9442 50.7491 34.8647 53.7861 31.7853C54.6386 30.9284 54.6919 30.0179 54.0259 29.3217C53.3066 28.5987 52.4274 28.679 51.495 29.5895C49.3105 31.7853 47.1261 33.9543 44.9416 36.1769C44.4088 36.7124 43.9292 37.2747 43.1833 38.1049Z" fill="#2AB4AE"/>
<path d="M25.7606 89.7866C25.7606 88.3674 25.7873 87.1088 25.734 85.8503C25.7074 85.4754 25.4942 85.1005 25.3078 84.7792C21.4449 78.9416 17.5555 73.1307 13.7193 67.2663C13.3197 66.6504 13.0266 65.7936 13.0266 65.0705C12.9734 56.9568 13 48.8431 13 40.7293C13 38.8817 13.7193 38.2925 15.5575 38.5335C19.66 39.0959 22.5372 42.3896 22.5638 46.5669C22.5905 49.9945 22.5372 53.4489 22.5905 56.8765C22.5905 57.3585 22.8569 57.9744 23.2032 58.3225C24.8282 60.0898 26.5066 61.7768 28.1316 63.4371C28.3714 63.33 28.4513 63.3032 28.5046 63.2764C30.6624 60.2505 33.8326 59.9559 36.47 62.607C39.7734 65.9274 43.0767 69.2747 46.4867 72.6755C46.7797 72.4077 47.0461 72.1667 47.2859 71.9257C50.3229 68.873 53.3598 65.8203 56.3702 62.7944C59.2207 59.9292 62.2044 60.1434 64.7086 63.4639C65.8807 62.2856 66.973 61.0003 68.2517 59.9827C70.0632 58.5367 70.6759 56.8497 70.5161 54.5468C70.303 51.8958 70.4628 49.218 70.4628 46.5402C70.4895 42.3896 73.3133 39.1494 77.3893 38.5068C79.334 38.2122 80.0266 38.8281 80.0266 40.7829C80.0266 48.8431 80.0533 56.8765 80 64.9367C80 65.7132 79.7336 66.5969 79.3074 67.2396C75.6044 72.9433 71.8215 78.5934 68.0386 84.2436C67.4791 85.0469 67.1861 85.8503 67.266 86.8411C67.3459 87.7783 67.2926 88.6887 67.2926 89.7599C67.8521 89.7599 68.3849 89.7331 68.8911 89.7599C69.8235 89.8134 70.4628 90.4829 70.4628 91.3666C70.4628 92.2502 69.8235 92.8929 68.8644 92.9464C68.598 92.9732 68.3316 92.9464 68.0652 92.9464C53.7062 92.9464 39.3471 92.9464 25.0147 92.9464C24.8815 92.9464 24.7483 92.9464 24.6151 92.9464C23.363 92.9197 22.6171 92.3573 22.6171 91.3398C22.6171 90.349 23.3364 89.7599 24.5885 89.7331C24.9348 89.7866 25.2811 89.7866 25.7606 89.7866ZM44.9149 89.7331C44.9149 89.3582 44.9149 89.0369 44.9149 88.7155C44.9149 85.0202 44.8883 81.298 44.9416 77.6026C44.9682 76.2637 44.542 75.2462 43.6096 74.309C40.466 71.2027 37.3491 68.0429 34.2056 64.9099C34.0457 64.7492 33.8859 64.5618 33.6994 64.4279C32.9801 63.9191 32.2608 63.9191 31.6215 64.535C30.9821 65.1777 30.9821 65.9007 31.4616 66.6237C31.6215 66.8647 31.8612 67.0789 32.0744 67.2931C34.3121 69.5693 36.5499 71.8454 38.7877 74.1483C39.8 75.1926 39.5336 76.719 38.2549 76.8796C37.6954 76.96 36.9229 76.6119 36.5233 76.2102C31.0088 70.7743 25.5742 65.3383 20.1929 59.8488C19.74 59.3936 19.4469 58.5635 19.4203 57.9208C19.3404 54.1451 19.3936 50.3694 19.367 46.5937C19.367 44.3979 18.0084 42.4967 16.2235 42.1486C16.1968 42.2825 16.1702 42.4164 16.1702 42.5235C16.1702 49.9142 16.1702 57.2781 16.1968 64.6689C16.1968 65.0973 16.4099 65.5793 16.6497 65.9274C20.5125 71.765 24.402 77.5759 28.2382 83.4403C28.6378 84.0562 28.8509 84.913 28.9042 85.6628C29.0107 87.0017 28.9308 88.3674 28.9308 89.7331C34.3388 89.7331 39.5869 89.7331 44.9149 89.7331ZM48.1117 89.7063C53.493 89.7063 58.7412 89.7063 64.0692 89.7063C64.0692 88.3674 64.1225 87.1088 64.0426 85.8235C63.9893 84.8863 64.2823 84.0829 64.7885 83.3064C68.6513 77.5491 72.4875 71.765 76.297 65.981C76.5901 65.5258 76.8032 64.8831 76.8032 64.3208C76.8565 57.2781 76.8565 50.2355 76.8565 43.1661C76.8565 42.818 76.8565 42.4699 76.8565 41.9344C76.4036 42.1754 76.1105 42.2825 75.8441 42.4699C74.299 43.5143 73.6596 45.0138 73.6596 46.8347C73.6596 50.5301 73.6863 54.2522 73.633 57.9476C73.633 58.5367 73.3666 59.2865 72.967 59.7149C67.5591 65.2312 62.0978 70.6939 56.6366 76.1834C55.7308 77.0939 54.8251 77.1742 54.1058 76.4512C53.3865 75.755 53.493 74.8177 54.3988 73.9341C56.6632 71.6312 58.9543 69.355 61.2453 67.0521C62.1511 66.1417 62.231 65.2312 61.5117 64.5082C60.8191 63.812 59.9133 63.8923 59.0608 64.7224C55.7575 68.0161 52.4274 71.283 49.1507 74.6035C48.6445 75.1391 48.1917 75.996 48.165 76.6922C48.0585 81.0302 48.1117 85.3415 48.1117 89.7063Z" fill="#2AB4AE"/>
<path d="M30.7956 16.4149C30.2362 16.0668 29.7833 15.8793 29.4636 15.5848C28.0251 14.1923 26.6131 12.7999 25.2012 11.3806C24.3754 10.5505 24.3754 9.61327 25.0946 8.91704C25.7873 8.24759 26.6931 8.30115 27.4656 9.07771C28.9042 10.4969 30.3161 11.9697 31.728 13.4157C32.2342 13.9245 32.5539 14.5672 32.1276 15.2099C31.808 15.6651 31.2752 15.9864 30.7956 16.4149Z" fill="#2AB4AE"/>
<path d="M44.9149 4.79326C44.9149 3.74892 44.8883 2.73136 44.9149 1.68701C44.9416 0.66945 45.6076 0 46.5133 0C47.4191 0 48.0851 0.66945 48.0851 1.71379C48.1117 3.7757 48.1117 5.86438 48.0851 7.92629C48.0851 8.94385 47.3924 9.6133 46.4867 9.6133C45.5809 9.6133 44.9416 8.94385 44.9149 7.89951C44.8883 6.85517 44.9149 5.8376 44.9149 4.79326Z" fill="#2AB4AE"/>
<path d="M20.9121 32.0533C19.9265 32.0533 18.9141 32.0801 17.9284 32.0533C16.8895 32.0266 16.2235 31.3839 16.1968 30.5002C16.1702 29.563 16.8628 28.8668 17.9551 28.8668C19.9797 28.84 22.0044 28.84 24.029 28.8668C25.068 28.8668 25.734 29.5094 25.7606 30.4199C25.7873 31.3571 25.0946 32.0266 24.0024 32.0533C22.9634 32.0801 21.9511 32.0533 20.9121 32.0533Z" fill="#2AB4AE"/>
<path d="M71.9547 32.0533C70.969 32.0533 69.9567 32.0801 68.971 32.0533C67.9587 32.0266 67.266 31.3839 67.266 30.4734C67.266 29.563 67.932 28.8668 68.9444 28.8668C70.9956 28.84 73.0736 28.84 75.1249 28.8668C76.1372 28.8668 76.8298 29.5362 76.8298 30.4467C76.8298 31.3839 76.1372 32.0533 75.0716 32.0533C74.006 32.0801 72.967 32.0533 71.9547 32.0533Z" fill="#2AB4AE"/>
<path d="M68.598 9.88124C68.2517 10.4971 68.0652 10.9791 67.7455 11.3273C66.3602 12.7733 64.9483 14.1925 63.5364 15.585C62.7372 16.3615 62.0179 16.3883 61.3519 15.7188C60.6859 15.0494 60.6859 14.1925 61.4052 13.4159C62.7638 11.9431 64.1491 10.4971 65.5344 9.05112C66.0406 8.54234 66.6533 8.19423 67.3193 8.5959C67.7988 8.86368 68.1451 9.39924 68.598 9.88124Z" fill="#2AB4AE"/>
</g>
<defs>
<clipPath id="clip0_208_434">
<rect width="67" height="93" fill="white" transform="translate(13)"/>
</clipPath>
</defs>
</svg>
