<svg width="94" height="94" viewBox="0 0 94 94" fill="none" xmlns="http://www.w3.org/2000/svg">
<g clip-path="url(#clip0_209_511)">
<path d="M19.7181 93.0002C19.039 92.5633 18.4327 92.0779 18.4569 91.1557C18.4812 90.1121 19.2573 89.3598 20.4457 89.3598C23.5016 89.3355 26.5575 89.3598 29.6133 89.3598C34.3427 89.3598 39.0478 89.3598 43.9227 89.3598C43.7529 89.0686 43.6316 88.8259 43.4861 88.6317C35.4826 77.2979 27.5518 65.9642 19.4998 54.6789C9.31352 40.3843 11.2295 20.9203 24.2292 9.07689C31.5778 2.3543 40.3332 -0.703638 50.3012 0.121519C66.284 1.45633 79.1866 13.4211 81.5634 29.1962C82.9459 38.37 80.9571 46.8157 75.6214 54.4362C73.7782 57.0816 71.8865 59.7269 70.019 62.3723C69.5339 63.0761 68.9033 63.4644 68.006 63.2703C67.2056 63.1004 66.672 62.5665 66.6478 61.7656C66.6235 61.2316 66.8418 60.6249 67.1329 60.1881C68.8548 57.6641 70.6253 55.1643 72.3958 52.6888C85.3227 34.681 76.1065 9.68363 54.5698 4.44146C37.6169 0.291403 20.1304 11.698 17.1473 28.9292C15.6436 37.6176 17.4868 45.5537 22.58 52.7617C30.6562 64.1682 38.7083 75.5991 46.7603 87.0057C46.9785 87.2969 47.1726 87.5881 47.4636 87.9764C47.7061 87.6367 47.9244 87.3697 48.1184 87.1027C51.1743 82.7828 54.2302 78.4629 57.2619 74.1187C57.7469 73.4148 58.329 72.9537 59.2264 73.0751C60.6573 73.2935 61.2151 74.7982 60.3177 76.0845C58.5958 78.5599 56.8253 81.0354 55.0791 83.5109C53.7452 85.4039 52.4112 87.2969 50.9561 89.3598C51.4411 89.3598 51.7564 89.3598 52.0717 89.3598C59.5174 89.3598 66.9631 89.3598 74.4088 89.3598C75.4759 89.3598 76.1793 89.8452 76.4218 90.7189C76.6401 91.5197 76.3005 92.2721 75.4274 92.8303C75.3546 92.8788 75.3061 92.9516 75.2334 93.0002C56.7525 93.0002 38.2474 93.0002 19.7181 93.0002Z" fill="#2AB4AE"/>
<path d="M63.8345 34.5598C63.8102 43.5637 56.4373 50.8688 47.4394 50.8445C38.4415 50.8202 31.1413 43.4423 31.1656 34.4142C31.1898 25.4103 38.5628 18.1052 47.5607 18.1295C56.5586 18.178 63.8587 25.5316 63.8345 34.5598ZM54.7638 34.5112C54.7638 30.5068 51.5139 27.2304 47.5364 27.2304C43.5347 27.2304 40.2605 30.4583 40.2362 34.4384C40.212 38.4671 43.4861 41.7435 47.4879 41.7435C51.4897 41.7678 54.7396 38.4914 54.7638 34.5112Z" fill="#2AB4AE"/>
<path d="M63.8344 70.0901C62.8401 70.0901 61.9912 69.2407 62.0397 68.2214C62.064 67.2506 62.8886 66.4497 63.8587 66.4497C64.8531 66.4497 65.7019 67.2991 65.6534 68.3184C65.6292 69.2892 64.8046 70.0901 63.8344 70.0901Z" fill="#2AB4AE"/>
</g>
<defs>
<clipPath id="clip0_209_511">
<rect width="69" height="93" fill="white" transform="translate(13)"/>
</clipPath>
</defs>
</svg>
