<svg width="94" height="94" viewBox="0 0 94 94" fill="none" xmlns="http://www.w3.org/2000/svg">
<g clip-path="url(#clip0_208_364)">
<g clip-path="url(#clip1_208_364)">
<path d="M52.2509 95C50.3726 94.3728 48.4015 93.9081 46.5928 93.0949C44.4825 92.1424 42.8361 90.5161 41.5607 88.5645C41.1433 87.9372 40.7027 87.7513 39.9838 87.7513C30.5458 87.7746 21.0847 87.7746 11.6467 87.7513C7.68134 87.7513 4.68993 86.0321 2.92756 82.431C2.44059 81.4552 2.27826 80.3168 2.02318 79.248C1.90723 78.7369 1.9768 78.2025 1.9768 77.6682C1.9768 66.2375 1.99999 54.7836 1.95361 43.353C1.95361 40.7044 2.69567 38.4043 4.29572 36.3133C7.10161 32.6657 9.83793 28.9717 12.5742 25.2544C12.8757 24.8362 13.038 24.2554 13.0844 23.7442C13.154 22.5129 13.0844 21.2815 13.1308 20.027C13.154 19.5158 12.9685 19.2835 12.5047 19.0512C10.5568 18.0521 9.4669 16.4026 9.44371 14.1722C9.39733 11.2913 9.37415 8.41042 9.44371 5.55275C9.53647 2.32336 11.8554 0.0232842 15.0787 0.0232842C26.1167 5.11096e-05 37.1316 5.11096e-05 48.1464 0.0232842C51.4857 0.0232842 53.7814 2.34659 53.8741 5.78508C53.9437 8.52659 53.9205 11.2913 53.8741 14.0328C53.8278 16.3329 52.7611 18.0289 50.7436 19.1209C50.4885 19.2603 50.3726 19.6552 50.1871 19.934C50.1639 19.9805 50.1871 20.0502 50.1871 20.1199C49.7233 23.2331 50.674 25.812 52.7843 28.205C55.0568 30.8071 56.9583 33.7112 59.0685 36.476C60.6222 38.4972 61.3411 40.7508 61.3179 43.2832C61.2947 48.0228 61.3179 52.7391 61.3179 57.4786C61.3179 57.8039 61.3179 58.1524 61.3179 58.6403C61.7121 58.4312 62.0135 58.2686 62.2918 58.1059C64.7499 56.6887 67.1615 55.2018 69.6892 53.9008C78.4083 49.3935 89.284 54.9927 90.8145 64.7041C91.8116 71.0003 89.0985 76.8086 83.5099 80.1077C76.1357 84.429 68.7152 88.6574 61.3411 92.9555C59.4395 94.0475 57.3757 94.6283 55.2655 95.0233C54.222 95 53.248 95 52.2509 95ZM5.75664 72.8822C6.01172 72.9054 6.17404 72.9054 6.31318 72.9054C17.5831 72.9054 28.853 72.9054 40.123 72.8822C40.494 72.8822 40.981 72.5801 41.1897 72.2781C42.3491 70.5356 43.6941 68.9558 45.5029 67.8871C49.2595 65.6335 53.0393 63.4263 56.8424 61.2424C57.3989 60.9171 57.6076 60.5919 57.6076 59.9414C57.5844 55.4806 57.5844 51.0431 57.5844 46.5823C57.5844 46.2803 57.5844 46.0015 57.5844 45.6995C40.2389 45.6995 23.0094 45.6995 5.75664 45.6995C5.75664 54.7836 5.75664 63.798 5.75664 72.8822ZM5.47837 41.8893C23.0558 41.8893 40.2389 41.8893 57.4685 41.8893C57.4221 40.7044 56.8887 39.7751 56.2394 38.9154C53.4336 35.1517 50.6045 31.4112 47.8218 27.6242C47.4739 27.1595 47.1029 27.0666 46.5696 27.0666C43.7405 27.0898 40.8882 27.0666 38.0591 27.0666C35.4156 27.0666 32.7488 27.0898 30.1053 27.0666C28.6907 27.0666 27.8559 26.1837 28.0182 24.9524C28.1342 23.9301 28.9458 23.3493 30.2676 23.3493C35.3228 23.3493 40.3781 23.3493 45.4565 23.3493C45.7811 23.3493 46.1058 23.3493 46.4768 23.3493C46.4768 22.0715 46.4768 20.9098 46.4768 19.7017C36.5982 19.7017 26.7892 19.7017 16.8874 19.7017C16.8874 21.3048 16.8642 22.8382 16.8874 24.3715C16.9106 25.3473 16.6324 26.1605 16.0294 26.9272C13.038 30.8536 10.0698 34.8032 7.14799 38.7993C6.49869 39.7054 6.08128 40.7508 5.47837 41.8893ZM58.2337 64.6809C54.593 66.8183 50.9755 68.7932 47.5203 70.9771C43.6941 73.3933 41.8622 78.2722 42.9289 82.6401C44.7144 90.0514 52.7147 93.4899 59.4395 89.7029C62.5933 87.9372 65.7006 86.1018 68.808 84.2896C68.9935 84.1967 69.1326 84.0573 69.3181 83.9179C65.6311 77.5056 61.9672 71.1397 58.2337 64.6809ZM31.7053 3.71734C26.279 3.71734 20.8296 3.71734 15.4033 3.71734C13.8265 3.71734 13.154 4.3911 13.1308 5.97095C13.1076 8.50335 13.1308 11.0358 13.1308 13.5682C13.1308 15.3106 13.7801 15.9379 15.5657 15.9379C26.279 15.9379 36.9924 15.9379 47.7058 15.9379C49.4914 15.9379 50.1871 15.2642 50.1871 13.4985C50.1871 11.0822 50.1871 8.66598 50.1871 6.27298C50.1871 4.34463 49.5378 3.71734 47.6363 3.71734C42.3259 3.71734 37.0156 3.71734 31.7053 3.71734ZM61.4802 62.892C65.1905 69.3043 68.8543 75.6934 72.5878 82.1522C75.9502 80.1774 79.3127 78.3652 82.5128 76.2974C87.3361 73.161 88.7275 66.4931 85.7824 61.5212C82.791 56.4796 76.414 54.5513 71.2892 57.2463C68.0427 58.9656 64.9122 60.8707 61.7353 62.7061C61.6657 62.7293 61.5961 62.799 61.4802 62.892ZM39.149 76.6692C28.111 76.6692 16.957 76.6692 5.80301 76.6692C5.06096 81.5946 8.28426 84.127 12.0641 84.0805C20.7832 83.9643 29.5255 84.034 38.2678 84.034C38.6389 84.034 39.0099 84.034 39.149 84.034C39.149 81.5481 39.149 79.1319 39.149 76.6692Z" fill="#2AB4AE"/>
<path d="M31.7053 3.71729C37.0156 3.71729 42.3259 3.71729 47.6363 3.71729C49.5378 3.71729 50.1871 4.36781 50.1871 6.27292C50.1871 8.68916 50.1871 11.1054 50.1871 13.4984C50.1871 15.2874 49.5146 15.9379 47.7058 15.9379C36.9924 15.9379 26.279 15.9379 15.5657 15.9379C13.7801 15.9611 13.1308 15.3338 13.1308 13.5913C13.1308 11.0589 13.1076 8.52653 13.1308 5.99413C13.1308 4.41428 13.8033 3.74052 15.4033 3.74052C20.8296 3.71729 26.2559 3.71729 31.7053 3.71729Z" fill="#2AB4AE"/>
<path d="M33.5141 61.823C33.5141 63.4494 33.5141 65.006 33.5141 66.5858C33.5141 68.2818 32.8648 69.1647 31.659 69.1879C30.4531 69.2111 29.8038 68.3283 29.8038 66.6323C29.8038 65.0524 29.8038 63.4958 29.8038 61.7766C28.3197 61.7766 26.9284 61.7766 25.5138 61.7766C25.0732 61.7766 24.6558 61.7998 24.2152 61.7533C23.1022 61.6604 22.4065 60.9169 22.4065 59.8947C22.4065 58.8724 23.1254 58.1057 24.2384 58.0825C25.7225 58.036 27.2067 58.0593 28.6908 58.0593C29.0154 58.0593 29.3632 58.0593 29.8038 58.0593C29.8038 56.4794 29.8038 54.9693 29.8038 53.4591C29.8038 53.25 29.8038 53.0177 29.8038 52.8086C29.827 51.4843 30.4995 50.6712 31.5894 50.6479C32.6793 50.6247 33.4677 51.4611 33.4909 52.8086C33.5141 54.5046 33.4909 56.2006 33.4909 58.036C34.5112 58.036 35.4852 58.036 36.4591 58.036C37.2244 58.036 38.0128 58.0128 38.778 58.036C40.0534 58.0593 40.8883 58.826 40.8651 59.8947C40.8651 60.9866 40.0303 61.7069 38.7317 61.7301C37.3171 61.7533 35.9026 61.7301 34.4649 61.7301C34.1866 61.7998 33.8851 61.823 33.5141 61.823Z" fill="#2AB4AE"/>
<path d="M24.2152 25.208C24.2383 26.1838 23.3803 27.0666 22.4064 27.0666C21.4325 27.0898 20.5745 26.2535 20.5513 25.2544C20.5281 24.2554 21.3397 23.3958 22.3368 23.3726C23.334 23.3726 24.192 24.2322 24.2152 25.208Z" fill="#2AB4AE"/>
</g>
</g>
<defs>
<clipPath id="clip0_208_364">
<rect width="94" height="94" fill="white"/>
</clipPath>
<clipPath id="clip1_208_364">
<rect width="89" height="95" fill="white" transform="translate(2)"/>
</clipPath>
</defs>
</svg>
