<svg width="94" height="94" viewBox="0 0 94 94" fill="none" xmlns="http://www.w3.org/2000/svg">
<g clip-path="url(#clip0_209_582)">
<g clip-path="url(#clip1_209_582)">
<path d="M35.8709 30.6799C36.6495 31.002 37.3207 31.3509 38.0725 31.5657C38.4753 31.673 38.9317 31.5925 39.3613 31.5657C39.5224 31.5657 39.6566 31.4046 39.8177 31.3509C41.5361 30.9483 42.6638 30.0357 43.1202 28.2104C43.2276 27.7541 44.0868 27.271 44.6506 27.2173C46.2079 27.0831 47.792 27.1636 49.3762 27.1636C50.2622 27.1636 50.8797 27.5931 51.0677 28.452C51.3899 29.9283 52.3296 30.6262 53.7258 31.1899C54.9877 31.6999 55.9543 31.7536 57.0551 31.0825C58.0485 30.492 58.8809 30.7336 59.6595 31.5657C60.5992 32.5588 61.5927 33.5251 62.5592 34.4914C63.2573 35.1625 63.499 35.9409 62.962 36.7461C62.1297 38.0345 62.3176 39.1887 62.9083 40.5577C63.4184 41.7387 64.0091 42.4634 65.2442 42.8124C66.5867 43.215 66.8015 43.6445 66.8283 45.0134C66.8283 46.3287 66.8015 47.6171 66.8283 48.9323C66.8552 50.0597 66.4256 50.9186 65.2979 51.0797C62.9083 51.4554 63.0157 53.6833 62.2102 55.1865C62.0491 55.5086 62.5324 56.2064 62.774 56.7433C63.4453 58.3001 63.4184 58.5685 62.237 59.7496C61.351 60.6622 60.4113 61.548 59.5521 62.4606C58.854 63.1853 58.0754 63.4537 57.2162 62.9169C55.9543 62.1385 54.8534 62.2458 53.511 62.8364C52.249 63.3732 51.4704 64.0174 51.1482 65.3326C50.8797 66.4063 50.1279 66.809 49.054 66.7821C47.6846 66.7553 46.3153 66.7553 44.946 66.7821C43.9526 66.809 43.2545 66.4063 42.986 65.44C42.6369 64.0979 41.8583 63.3464 40.489 62.8095C39.2002 62.2995 38.1531 62.1385 36.9717 62.89C36.032 63.4806 35.1996 63.2122 34.4747 62.4337C33.535 61.4406 32.5415 60.4743 31.575 59.508C30.85 58.8101 30.6352 58.0317 31.1454 57.1727C31.8703 55.9649 31.8166 54.8912 31.2259 53.5491C30.6889 52.2607 30.0445 51.4018 28.6752 51.1065C27.6549 50.8649 27.2253 50.1402 27.2253 49.0934C27.2522 47.6976 27.2522 46.275 27.2253 44.8792C27.2253 43.8861 27.6281 43.215 28.5947 42.9197C28.8095 42.8661 29.0243 42.705 29.2391 42.6782C30.2056 42.4903 30.7426 41.9266 30.9306 40.9603C30.9306 40.9066 30.9574 40.8261 30.9843 40.7724C31.924 39.4035 31.8971 38.0345 31.0111 36.6119C30.6084 35.9677 30.7963 35.243 31.3602 34.6793C32.4878 33.5251 33.6155 32.3978 34.77 31.2704C35.0385 31.002 35.4681 30.8946 35.8709 30.6799ZM34.1525 57.7901C34.5821 58.139 34.9311 58.3538 35.1459 58.6222C35.844 59.6153 36.6227 59.7764 37.6429 59.0785C38.4484 58.5417 39.2539 58.6759 40.0862 59.1322C40.9723 59.6422 41.9388 60.0985 42.9323 60.3401C44.1405 60.6353 44.946 61.2259 45.1876 62.4337C45.4024 63.4269 45.9931 63.6148 46.906 63.5879C47.8457 63.5611 48.5975 63.5342 48.8123 62.3801C49.0271 61.199 49.8057 60.6085 50.9871 60.3401C51.8463 60.1522 52.7323 59.8032 53.4841 59.3201C54.6118 58.5954 55.6589 58.4612 56.7329 59.2127C57.8606 59.9911 58.2633 58.998 58.9346 58.4612C59.6327 57.9243 59.6595 57.3606 59.2031 56.6896C58.505 55.6159 58.5855 54.5959 59.2836 53.5223C59.7669 52.7707 60.1428 51.9118 60.3307 51.026C60.5992 49.7644 61.2705 48.986 62.5055 48.7176C63.4721 48.5297 63.6332 47.9123 63.5795 47.0265C63.5527 46.1676 63.6601 45.3624 62.5055 45.1476C61.2705 44.906 60.5992 44.1276 60.3039 42.8661C60.0622 41.8729 59.579 40.9335 59.0957 40.0208C58.6661 39.2156 58.5855 38.4908 58.9883 37.6588C59.6863 36.1825 59.6058 36.2093 58.505 35.0014C57.9411 34.3572 57.431 34.2498 56.7329 34.6793C55.6321 35.3772 54.5849 35.2967 53.4841 34.5719C52.786 34.1156 51.9269 33.7667 51.0945 33.5788C49.7789 33.3104 49.0271 32.5856 48.7049 31.3241C48.6244 30.9751 48.4096 30.4383 48.1948 30.4115C47.4161 30.3041 46.5838 30.2504 45.8052 30.4115C45.5098 30.4651 45.3219 31.1362 45.1608 31.5388C44.8386 32.3172 44.5432 33.042 43.6035 33.3372C42.2879 33.7935 41.026 34.4377 39.7103 34.894C39.2002 35.0819 38.4216 35.2161 38.0188 34.9477C36.569 33.9814 35.5755 34.4377 34.7163 35.6993C34.6089 35.8604 34.4478 35.9946 34.3136 36.1556C34.5015 36.5851 34.6358 36.9877 34.8506 37.3635C35.4144 38.3298 35.307 39.2156 34.7163 40.1819C34.2331 40.9871 33.8303 41.8461 33.6155 42.7587C33.3202 44.0471 32.6758 44.8524 31.3602 45.1476C30.5278 45.3355 30.2056 45.8187 30.3399 46.6508C30.3936 46.9997 30.2862 47.4023 30.3667 47.7513C30.4204 47.9928 30.6084 48.3686 30.7963 48.4223C32.7563 48.7713 33.5081 50.1402 33.884 51.9117C33.9377 52.1802 34.0451 52.4486 34.1794 52.6633C35.3876 54.3544 35.6561 56.0185 34.1525 57.7901Z" fill="#2AB4AE"/>
<path d="M83.5824 16.3463C83.5824 13.1253 81.0048 10.468 77.8366 10.4411C74.6415 10.4143 71.9834 13.0716 71.9565 16.3463C71.9565 19.5942 74.6415 22.3052 77.8097 22.2784C80.978 22.2247 83.5824 19.5405 83.5824 16.3463Z" fill="#2AB4AE"/>
<path d="M83.5826 79.7198C83.5826 76.472 80.9513 73.761 77.7562 73.7878C74.6149 73.8146 71.9836 76.472 71.9836 79.6661C71.9568 82.8603 74.5612 85.5713 77.7025 85.5982C80.8976 85.625 83.5557 82.9677 83.5826 79.7198Z" fill="#2AB4AE"/>
<path d="M7.30313 36.6122C5.82641 42.088 5.39682 47.3758 5.90696 52.7173C6.1486 55.0794 6.65874 57.3878 7.08834 59.723C7.27628 60.7967 6.87354 61.6288 5.96066 61.8435C5.04778 62.0583 4.24229 61.5483 3.9738 60.4746C1.96009 52.4221 1.98694 44.3964 4.00065 36.3438C4.05435 36.0754 4.13489 35.8338 4.18859 35.5654C4.18859 35.5117 4.13489 35.458 4.0812 35.297C3.57106 35.6459 3.08777 35.9949 2.57763 36.317C1.71844 36.8538 0.778711 36.6928 0.268571 35.9412C-0.241569 35.1628 -0.080472 34.277 0.778711 33.6596C2.63132 32.3444 4.51079 31.056 6.39025 29.7944C7.49108 29.0697 8.59191 29.4723 8.9678 30.7607C9.61219 32.9081 10.2297 35.0554 10.8204 37.2296C11.0889 38.2227 10.6593 39.0548 9.80013 39.3233C8.88725 39.5917 8.10862 39.1085 7.75957 38.0617C7.65217 37.6591 7.51793 37.2564 7.30313 36.6122Z" fill="#2AB4AE"/>
<path d="M57.1625 7.13975C55.0414 6.76396 52.9472 6.30765 50.7992 6.03923C45.2951 5.36819 39.8446 5.74397 34.4747 7.03238C33.2396 7.32764 32.3805 6.92501 32.1388 5.95871C31.8972 4.9924 32.461 4.24083 33.6961 3.91873C41.6704 1.93244 49.6447 2.01296 57.619 3.99926C57.9143 4.07978 58.2365 4.13346 58.7735 4.26767C58.2902 3.56979 57.9412 3.08663 57.6458 2.57664C57.1088 1.7177 57.2699 0.778239 58.0217 0.268244C58.8003 -0.24175 59.6864 -0.0806991 60.2771 0.778239C61.5927 2.63032 62.8815 4.50925 64.1434 6.38818C64.8683 7.48869 64.4656 8.5892 63.1768 8.96499C61.0288 9.60919 58.8809 10.2266 56.7329 10.8171C55.7395 11.0855 54.9072 10.6292 54.6387 9.79708C54.3702 8.91131 54.8535 8.10605 55.82 7.78395C56.2496 7.6229 56.7061 7.51553 57.1357 7.35448C57.1625 7.3008 57.1625 7.22027 57.1625 7.13975Z" fill="#2AB4AE"/>
<path d="M35.2535 89.7857C35.71 90.4567 36.059 90.9399 36.3544 91.4767C36.8377 92.3088 36.6766 93.1946 35.9785 93.7046C35.2267 94.2414 34.3138 94.1072 33.6963 93.2483C32.3538 91.3693 31.0382 89.4636 29.7763 87.5578C29.0782 86.511 29.5078 85.4105 30.7428 85.0347C32.9176 84.3905 35.0925 83.7731 37.2941 83.1558C38.2338 82.8873 39.0393 83.3436 39.3078 84.1489C39.6032 85.0078 39.1467 85.8668 38.207 86.2157C37.7774 86.3768 37.321 86.4841 36.5692 86.7257C37.5358 86.9673 38.207 87.1283 38.9051 87.2894C39.63 87.4504 40.3549 87.5846 41.0799 87.7189C41.8048 87.8531 42.5298 87.9604 43.2547 88.041C48.7588 88.6583 54.2093 88.3094 59.5792 87.021C60.0893 86.8868 60.8411 86.9673 61.2438 87.2626C61.6197 87.531 61.9419 88.3094 61.7808 88.712C61.5929 89.2488 61.0022 89.9199 60.4921 90.0004C57.5118 90.5641 54.5046 91.1546 51.4975 91.423C46.2618 91.8525 41.0799 91.2888 36.0053 89.9199C35.8174 89.8394 35.6294 89.8394 35.2535 89.7857Z" fill="#2AB4AE"/>
<path d="M89.7042 58.8104C90.4023 58.3272 90.8856 57.9783 91.3957 57.683C92.2549 57.1462 93.1947 57.3073 93.7048 58.032C94.2418 58.7836 94.0807 59.6962 93.2215 60.3135C91.342 61.6556 89.4357 62.9709 87.5294 64.2324C86.536 64.9035 85.4083 64.5009 85.0324 63.3467C84.3612 61.1188 83.7168 58.8641 83.0993 56.6094C82.8576 55.7504 83.3677 54.9452 84.1464 54.7036C84.9519 54.462 85.7842 54.8378 86.1064 55.6699C86.2943 56.1531 86.4286 56.6631 86.5897 57.173C86.6702 57.173 86.7776 57.173 86.8582 57.1999C87.2341 55.0525 87.6905 52.932 87.959 50.7579C88.6302 45.2553 88.2543 39.8064 86.9387 34.4112C86.6702 33.257 87.073 32.3981 88.0127 32.1833C88.9793 31.9418 89.7579 32.5054 90.0533 33.7133C92.0401 41.6853 91.9596 49.6842 89.9727 57.6562C89.8922 57.9515 89.8385 58.2467 89.7042 58.8104Z" fill="#2AB4AE"/>
<path d="M31.3066 32.7735C30.7428 32.4245 30.2595 32.2635 29.9105 31.9414C28.4069 30.4919 26.957 29.0425 25.5071 27.5393C24.7285 26.7341 24.7017 25.8215 25.346 25.1504C25.9904 24.4794 26.957 24.5062 27.7356 25.2578C29.2661 26.7609 30.8233 28.2372 32.2464 29.8209C32.5954 30.2235 32.7296 31.0825 32.5954 31.6193C32.488 32.0756 31.7899 32.3709 31.3066 32.7735Z" fill="#2AB4AE"/>
<path d="M70.2921 67.7486C69.9699 68.1512 69.7282 68.7686 69.2986 68.9565C68.8153 69.1444 67.983 69.1444 67.634 68.8491C65.8888 67.2654 64.1972 65.5744 62.5863 63.8297C61.9956 63.2123 62.103 62.3802 62.7205 61.7629C63.3649 61.1455 64.1704 61.0381 64.7879 61.6555C66.4794 63.266 68.1173 64.9302 69.7551 66.6212C70.0236 66.836 70.0773 67.2386 70.2921 67.7486Z" fill="#2AB4AE"/>
<path d="M69.9698 25.8216C69.6208 26.4121 69.4597 26.8684 69.1375 27.1905C67.6608 28.6937 66.184 30.1968 64.6805 31.6731C63.9018 32.4515 62.9353 32.4515 62.2909 31.7537C61.6733 31.0826 61.6733 30.17 62.3983 29.4453C63.9018 27.9153 65.4054 26.4121 66.9358 24.909C67.446 24.399 68.0904 24.1037 68.7347 24.5064C69.2449 24.8016 69.5671 25.3385 69.9698 25.8216Z" fill="#2AB4AE"/>
<path d="M24.7284 69.3056C24.3525 69.0103 23.735 68.7687 23.547 68.3393C23.3591 67.8561 23.3322 67.024 23.6276 66.7019C25.2386 64.9304 26.9569 63.2393 28.7021 61.5751C29.2928 61.0115 30.0983 61.1457 30.689 61.7362C31.3334 62.3804 31.4139 63.1856 30.8232 63.8299C29.2123 65.5477 27.4939 67.2119 25.8024 68.8493C25.6144 69.064 25.2117 69.1177 24.7284 69.3056Z" fill="#2AB4AE"/>
<path d="M83.5824 16.3463C83.5824 19.5673 80.978 22.2247 77.8366 22.2515C74.6415 22.2783 71.9565 19.5673 71.9565 16.3195C71.9565 13.0716 74.6146 10.3874 77.8366 10.4143C81.0048 10.4411 83.5824 13.1253 83.5824 16.3463Z" fill="#2AB4AE"/>
<path d="M16.1904 10.4146C19.3854 10.4146 22.0435 13.0987 22.0167 16.3466C22.0167 19.5676 19.3854 22.2249 16.2441 22.2518C13.049 22.2786 10.4177 19.5676 10.4177 16.2929C10.4446 13.0719 13.0221 10.4414 16.1904 10.4146Z" fill="#2AB4AE"/>
<path d="M8.40401 77.7069C8.37716 74.4322 11.0353 71.748 14.2035 71.748C17.3449 71.748 19.9761 74.4054 20.003 77.6264C20.0298 80.8743 17.3717 83.5853 14.1766 83.5584C11.0353 83.5853 8.43086 80.9279 8.40401 77.7069Z" fill="#2AB4AE"/>
<path d="M83.5826 79.7198C83.5826 82.9677 80.9245 85.625 77.7025 85.5982C74.5612 85.5713 71.9568 82.8603 71.9836 79.6662C72.0105 76.4451 74.6149 73.7878 77.7562 73.7878C80.9513 73.761 83.5826 76.4451 83.5826 79.7198Z" fill="#2AB4AE"/>
<path d="M46.9597 57.1996C41.3482 57.1727 36.7032 52.5022 36.7837 46.9192C36.8374 41.3361 41.4556 36.7729 47.0134 36.7729C52.6249 36.7998 57.2699 41.4703 57.1893 47.0534C57.1356 52.6633 52.5175 57.2264 46.9597 57.1996ZM46.9865 54.0054C50.7723 54.0322 53.9674 50.8649 53.9943 47.0534C54.0211 43.2687 50.8797 40.0745 47.0671 40.0208C43.2276 39.9671 40.0057 43.1881 40.0057 47.0265C40.0057 50.8112 43.1739 53.9785 46.9865 54.0054Z" fill="#2AB4AE"/>
</g>
</g>
<defs>
<clipPath id="clip0_209_582">
<rect width="94" height="94" fill="white"/>
</clipPath>
<clipPath id="clip1_209_582">
<rect width="94" height="94" fill="white"/>
</clipPath>
</defs>
</svg>
