<svg width="42" height="43" viewBox="0 0 42 43" fill="none" xmlns="http://www.w3.org/2000/svg">
<g clip-path="url(#clip0_94_44)">
<path d="M21.2392 42.9999C20.6652 42.9999 20.1868 42.9999 19.6128 42.9999C18.9431 42.8083 18.2734 42.7125 17.6993 42.521C13.2027 40.9887 8.8975 39.1691 4.68793 36.9664C1.7221 35.4341 0.0956798 33.0399 0.0956798 29.688C7.78772e-06 24.2292 7.78772e-06 18.7705 0.0956798 13.3117C0.191352 9.95976 1.7221 7.56555 4.78361 5.93749C8.8975 3.83059 13.2984 2.01099 17.6993 0.478692C18.5604 0.191387 19.5171 -0.000149872 20.4738 -0.000149872C22.8656 -0.0959182 24.8747 1.14907 27.1709 1.81945C26.9795 1.91522 26.8838 2.01099 26.7882 2.01099C25.9271 2.29829 24.9704 2.5856 24.1093 2.8729C18.7517 4.78827 13.5854 6.89517 8.41914 9.38515C7.36675 9.95976 6.60137 10.7259 6.21869 11.8751C6.12301 12.354 6.02734 12.8328 6.02734 13.3117C5.93167 16.2805 5.836 19.1535 5.836 22.1223C5.836 22.697 6.12301 22.8885 6.60137 22.6012C6.98406 22.4096 7.36675 22.1223 7.74944 21.9308C8.03646 21.7393 8.2278 21.7393 8.51481 22.0266C9.08885 22.7927 9.66288 23.5589 10.3326 24.325C10.5239 24.5166 10.6196 24.8039 11.0023 24.6123C11.2893 24.5166 11.2893 24.2292 11.2893 23.9419C11.2893 20.8774 11.2893 17.717 11.385 14.6524C11.385 13.0243 12.246 11.7794 13.6811 11.109C14.8292 10.6301 15.8816 10.1513 17.0296 9.67246C21.9089 7.56555 26.9795 5.74595 32.0501 4.11789C32.2415 4.02212 32.4328 4.02212 32.5285 4.11789C34.0592 4.88404 35.6857 5.55442 37.1207 6.41633C39.6082 7.94863 40.7563 10.3428 40.8519 13.3117C40.9476 17.1424 40.9476 20.9731 40.9476 24.8039C40.9476 24.8996 40.9476 24.9954 40.9476 25.1869C38.4601 23.08 35.7813 22.0266 32.5285 22.1223C29.3713 22.2181 26.5968 23.4631 24.3964 25.6658C22.3873 27.6769 21.2392 30.1669 21.0478 33.0399C20.7608 36.4876 21.9089 39.4564 24.205 42.0422C24.1093 42.1379 24.0137 42.1379 23.918 42.1379C23.057 42.521 22.1959 42.8083 21.2392 42.9999Z" fill="#2AB4AE"/>
<path d="M32.1458 43C31.2847 42.8085 30.4237 42.617 29.5626 42.3297C25.9271 40.8931 23.631 37.0624 24.0137 33.2317C24.492 29.1136 27.3622 25.8575 31.2847 25.1871C36.3554 24.3252 40.9476 27.4856 41.9043 32.5613C42.7654 37.5412 39.2255 42.4254 34.1549 43C34.0592 43 33.9636 43.0958 33.8679 43.0958C33.1982 43 32.7198 43 32.1458 43ZM31.5718 34.764C30.9977 34.1894 30.4237 33.7105 29.8497 33.1359C29.0843 32.4655 28.1276 32.3698 27.4579 33.0401C26.7882 33.7105 26.7882 34.6682 27.5535 35.4343C28.4146 36.2963 29.2756 37.2539 30.1367 38.1159C30.9977 38.9778 31.8588 38.9778 32.7198 38.1159C34.4419 36.2963 36.164 34.5724 37.8861 32.7528C38.5558 31.9867 38.5558 31.029 37.8861 30.3586C37.3121 29.6882 36.3554 29.784 35.6857 30.4544C35.0159 31.1248 34.4419 31.7951 33.7722 32.4655C33.0068 33.2317 32.3371 33.9978 31.5718 34.764Z" fill="#2AB4AE"/>
</g>
<defs>
<clipPath id="clip0_94_44">
<rect width="42" height="43" fill="white"/>
</clipPath>
</defs>
</svg>
