<svg width="42" height="44" viewBox="0 0 42 44" fill="none" xmlns="http://www.w3.org/2000/svg">
<g clip-path="url(#clip0_26_25)">
<path d="M19.3953 39.0651C13.4384 39.0651 7.88497 36.183 4.17631 31.1494C-0.93511 24.2207 -0.973541 14.8443 4.09945 7.85644C7.6736 2.94123 13.3807 0 19.3376 0C21.5859 0 23.7765 0.414536 25.871 1.22387C34.2684 4.50067 38.1307 12.4163 38.3229 18.7133H35.4213C35.4213 18.6936 35.4213 18.6541 35.4213 18.6344C35.3637 18.0619 35.3252 17.4697 35.2292 16.8775C34.1339 9.83042 28.5805 4.20458 21.7204 3.19785C20.9518 3.07941 20.1639 3.02019 19.3761 3.02019C11.6705 3.02019 5.17554 8.42889 3.59984 16.1866C1.87041 24.576 6.80889 33.0049 14.8027 35.3935C16.3015 35.8475 17.8964 36.0646 19.549 36.0646C19.818 36.0646 20.087 36.0646 20.3561 36.0449C20.3753 36.0449 20.4522 36.0646 20.4714 36.0843C21.2977 36.9332 22.1624 37.8214 22.9694 38.69C21.8165 38.9466 20.6251 39.0651 19.3953 39.0651Z" fill="#2AB4AE"/>
<path d="M25.6023 34.8012C25.8137 34.8012 26.025 34.8012 26.2364 34.8012C26.64 34.8012 26.9666 34.8012 27.2741 34.821C27.3125 34.821 27.3317 34.821 27.3702 34.821C27.7545 34.821 28.0811 34.7025 28.3117 34.4657C28.6576 34.0906 28.6576 33.5971 28.6576 33.4392C28.6576 32.0969 28.6576 30.7546 28.6576 29.432V27.1817H28.6384V26.4316C28.6384 25.2077 28.6384 24.0036 28.6384 22.7797C28.6384 22.5428 28.6576 22.4244 28.6768 22.3652C28.7345 22.3454 28.8498 22.3257 29.0804 22.3257C30.5408 22.3257 31.982 22.3257 33.4424 22.3257C34.9604 22.3257 36.4593 22.3257 37.9773 22.3257C38.2271 22.3257 38.3424 22.3454 38.3808 22.3652C38.4001 22.4046 38.4193 22.5231 38.4193 22.7994C38.4193 24.9708 38.4193 27.1225 38.4193 29.2938V33.3208C38.4193 34.0511 38.5154 34.821 39.726 34.821C39.7836 34.821 39.8413 34.821 39.8989 34.821H40.1487C40.4754 34.821 40.802 34.821 41.1287 34.821C41.3209 34.821 41.4938 34.821 41.6475 34.821C40.3409 36.3212 38.9958 37.8412 37.6891 39.3019C37.055 40.0125 36.4208 40.7429 35.7867 41.4535C35.2679 42.0457 34.7683 42.6182 34.2494 43.2104C34.0188 43.467 33.7883 43.7434 33.5577 44L25.6023 34.8012Z" fill="#2AB4AE"/>
<path d="M12.3333 12V13.5758H15.6666C17.0858 13.5758 18.9508 14.3952 19.5991 15.9394H12.3333V17.5152H19.8074C19.5499 19.5715 17.3108 20.6667 15.6666 20.6667H12.3333V22.6119L20.8749 29.3333H23.4791L14.4683 22.2424H15.6666C18.3616 22.2424 21.2299 20.3594 21.4741 17.5152H25.6666V15.9394H21.3433C21.0908 15.0065 20.5499 14.21 19.8333 13.5758H25.6666V12H12.3333Z" fill="#2AB4AE"/>
</g>
<defs>
<clipPath id="clip0_26_25">
<rect width="41.3333" height="44" fill="white" transform="translate(0.333252)"/>
</clipPath>
</defs>
</svg>
