<svg width="44" height="44" viewBox="0 0 44 44" fill="none" xmlns="http://www.w3.org/2000/svg">
<g clip-path="url(#clip0_29_73)">
<path d="M18.5067 11.8726C18.5067 11.0755 18.5067 10.3046 18.5067 9.54665C18.5067 7.66495 18.5067 5.79631 18.5067 3.9146C18.5067 3.03909 18.9222 2.79081 19.6885 3.18283C21.3119 4.03221 22.9352 4.88159 24.5716 5.73097C24.8703 5.88778 25.182 6.08379 25.1041 6.42354C25.0391 6.67182 24.8054 6.94624 24.5716 7.07691C23.143 7.86096 21.7015 8.61887 20.2469 9.35064C19.8963 9.53358 19.7794 9.74266 19.7924 10.1216C19.8183 10.592 19.8054 11.0755 19.7924 11.559C19.7924 11.8204 19.8833 11.9119 20.143 11.9511C24.9742 12.6044 28.1171 16.786 27.4677 21.6471C27.0911 24.4958 25.9352 27.0439 24.4677 29.4483C23.156 31.5783 21.6106 33.5253 19.8963 35.3417C19.2989 35.982 19.0002 35.982 18.4287 35.3286C15.8054 32.3362 13.4547 29.1478 11.9093 25.4366C11.13 23.568 10.6625 21.634 10.8054 19.5824C11.0651 15.9235 13.9093 12.709 17.5326 12.0425C17.8183 11.9772 18.13 11.9249 18.5067 11.8726ZM23.2729 20.6278C23.2599 18.3149 21.4287 16.4854 19.13 16.4985C16.8443 16.5116 15.0002 18.3802 15.0132 20.667C15.0261 22.9538 16.9093 24.8224 19.169 24.8094C21.4547 24.7832 23.2729 22.9277 23.2729 20.6278Z" fill="#2AB4AE"/>
<path d="M35.9871 26.09C35.9871 24.6003 35.9871 23.0975 35.9871 21.6079C35.9871 20.7715 36.4157 20.5102 37.143 20.9022C38.9222 21.83 40.7014 22.7447 42.4676 23.6986C42.7014 23.8162 42.9222 24.1037 42.9871 24.352C43.078 24.7179 42.7533 24.8878 42.4546 25.0446C40.8443 25.8809 39.2339 26.7303 37.6235 27.5666C37.3637 27.6973 37.2598 27.8541 37.2598 28.1546C37.2728 28.9909 37.2728 29.8403 37.2598 30.6766C37.2598 31.2385 37.0131 31.5522 36.5975 31.526C36.2079 31.5129 35.9741 31.2124 35.9741 30.6766C35.9871 29.1347 35.9871 27.6058 35.9871 26.09Z" fill="#2AB4AE"/>
<path d="M1.00005 26.0768C1.00005 24.5871 1.00005 23.0844 1.00005 21.5947C1.00005 20.7714 1.40265 20.5101 2.11693 20.889C3.92213 21.8299 5.74031 22.7708 7.53252 23.7377C7.75329 23.8553 7.98706 24.1559 7.98706 24.378C7.98706 24.5871 7.74031 24.8877 7.53252 25.0053C5.90914 25.8677 4.25979 26.7171 2.61044 27.5665C2.3507 27.6972 2.2468 27.854 2.2468 28.1545C2.27277 28.9908 2.25979 29.8402 2.2468 30.6896C2.2468 31.2384 2.03901 31.5259 1.63641 31.539C1.22083 31.552 1.00005 31.2515 0.987061 30.6765C1.00005 29.1215 1.00005 27.6057 1.00005 26.0768Z" fill="#2AB4AE"/>
<path d="M28.4546 25.8154C28.6754 25.8938 28.8053 25.92 28.9092 25.9853C29.4287 26.2728 29.9481 26.5733 30.4676 26.8739C30.8053 27.083 30.9611 27.3835 30.7533 27.7494C30.5455 28.1284 30.2079 28.1676 29.8572 27.9846C29.2988 27.6841 28.7533 27.3705 28.2079 27.0568C27.9092 26.887 27.7793 26.5995 27.9222 26.2859C28.052 26.1029 28.2988 25.9592 28.4546 25.8154Z" fill="#2AB4AE"/>
<path d="M34.6493 29.5139C34.6363 30.0888 34.1947 30.4155 33.7792 30.2064C33.1688 29.9059 32.5844 29.5661 31.9999 29.2133C31.7012 29.0304 31.5973 28.7168 31.7792 28.3901C31.961 28.0503 32.2727 27.9719 32.5973 28.1287C33.2077 28.4293 33.7921 28.7821 34.3636 29.1349C34.5194 29.2133 34.5973 29.4355 34.6493 29.5139Z" fill="#2AB4AE"/>
<path d="M32.195 34.4923C32.0781 34.3878 31.8183 34.244 31.7664 34.048C31.7144 33.8389 31.8053 33.46 31.9612 33.3555C32.5326 32.9634 33.143 32.6106 33.7794 32.3231C33.9612 32.2447 34.3768 32.3754 34.5066 32.5453C34.6235 32.7152 34.5976 33.1986 34.4677 33.2901C33.8313 33.7344 33.143 34.0872 32.4677 34.4662C32.4287 34.4792 32.3768 34.4662 32.195 34.4923Z" fill="#2AB4AE"/>
<path d="M14.2078 38.0335C14.2208 38.5823 13.7533 38.9351 13.3507 38.7391C12.7273 38.4386 12.1299 38.0857 11.5325 37.7198C11.2338 37.5369 11.1819 37.2233 11.3247 36.9227C11.4935 36.583 11.8182 36.4784 12.1299 36.6353C12.7533 36.9489 13.3507 37.3017 13.9481 37.6676C14.078 37.746 14.1559 37.9551 14.2078 38.0335Z" fill="#2AB4AE"/>
<path d="M26.4806 36.4917C26.6494 36.6485 26.9221 36.7923 26.9611 36.9752C27.013 37.1843 26.9351 37.5632 26.7793 37.6678C26.1949 38.0729 25.5845 38.4257 24.9351 38.7132C24.7533 38.7916 24.3377 38.6478 24.2208 38.4779C24.1039 38.3081 24.1299 37.8246 24.2728 37.7331C24.9091 37.3019 25.5974 36.9491 26.2598 36.5701C26.2987 36.544 26.3507 36.557 26.4026 36.557C26.4286 36.544 26.4546 36.5178 26.4806 36.4917Z" fill="#2AB4AE"/>
<path d="M17.4675 40.9998C17.2467 40.9083 17.1038 40.8691 16.9869 40.8038C16.4804 40.5163 15.974 40.2419 15.4675 39.9414C15.0779 39.7061 14.961 39.3664 15.1558 39.0266C15.3376 38.7 15.7012 38.6215 16.0908 38.8437C16.6363 39.1312 17.1817 39.4056 17.6753 39.7715C17.8571 39.9022 17.9869 40.255 17.948 40.4902C17.922 40.6862 17.6233 40.843 17.4675 40.9998Z" fill="#2AB4AE"/>
<path d="M23.2339 39.4843C23.156 39.5757 23.0261 39.8109 22.8313 39.9285C22.3248 40.2552 21.8053 40.5427 21.2729 40.8171C20.8832 41.0262 20.4936 40.9217 20.3508 40.5819C20.1819 40.203 20.3118 39.9024 20.6625 39.7064C21.1949 39.4058 21.7274 39.0792 22.2599 38.8047C22.7404 38.5695 23.2209 38.857 23.2339 39.4843Z" fill="#2AB4AE"/>
<path d="M6.5975 28.795C6.51957 28.8865 6.41568 29.1217 6.23386 29.2393C5.71438 29.5791 5.16893 29.8665 4.63646 30.1671C4.25983 30.3631 3.8962 30.2716 3.72737 29.958C3.55854 29.6444 3.66243 29.2654 4.01308 29.0564C4.54555 28.7428 5.07802 28.4291 5.62347 28.1416C6.091 27.8934 6.57152 28.1678 6.5975 28.795Z" fill="#2AB4AE"/>
<path d="M6.05189 34.5315C5.83111 34.4531 5.70124 34.4139 5.59734 34.3617C5.07786 34.0742 4.54539 33.7736 4.02591 33.4731C3.66228 33.264 3.55838 32.9634 3.72721 32.5845C3.87007 32.2578 4.25968 32.1533 4.62332 32.3493C5.18176 32.6498 5.75319 32.9373 6.25968 33.3032C6.4415 33.4339 6.55838 33.7998 6.51942 34.0219C6.49345 34.2179 6.19475 34.3747 6.05189 34.5315Z" fill="#2AB4AE"/>
<path d="M8.09099 28.233C7.84424 28.0239 7.57151 27.8932 7.51957 27.6972C7.46762 27.4751 7.53255 27.0961 7.6884 26.9916C8.27281 26.5865 8.89619 26.2337 9.54554 25.9331C9.71437 25.8547 10.091 25.9854 10.2339 26.1422C10.3637 26.2859 10.3897 26.7433 10.2858 26.8086C9.59749 27.3182 8.87021 27.7495 8.09099 28.233Z" fill="#2AB4AE"/>
<path d="M10.3897 35.8643C10.4027 36.4262 9.92217 36.766 9.4936 36.5569C8.88321 36.2563 8.29879 35.9035 7.71438 35.5507C7.40269 35.3547 7.35074 35.028 7.53256 34.7144C7.71438 34.4008 8.01308 34.2962 8.35074 34.4792C8.93516 34.7928 9.51957 35.1195 10.078 35.4723C10.2468 35.5638 10.3248 35.7729 10.3897 35.8643Z" fill="#2AB4AE"/>
<path d="M30.8443 35.1455C30.7663 35.237 30.6754 35.4722 30.4936 35.5898C29.9741 35.9165 29.4287 36.2171 28.8832 36.5045C28.5326 36.7005 28.2079 36.6613 27.9741 36.2955C27.7793 35.9818 27.8702 35.629 28.2469 35.4069C28.7923 35.0802 29.3378 34.7666 29.8962 34.4791C30.3508 34.2569 30.8313 34.5444 30.8443 35.1455Z" fill="#2AB4AE"/>
</g>
<defs>
<clipPath id="clip0_29_73">
<rect width="42" height="38" fill="white" transform="translate(1 3)"/>
</clipPath>
</defs>
</svg>
