<svg width="44" height="44" viewBox="0 0 44 44" fill="none" xmlns="http://www.w3.org/2000/svg">
<g clip-path="url(#clip0_29_45)">
<path d="M20.4151 24.5724C17.1132 24.5724 13.8113 24.5724 10.5094 24.5724C6.83019 24.5724 3.90566 21.5791 4.09434 17.931C4.18868 15.686 5.22641 14.0023 7.01887 12.7862C7.30188 12.5991 7.30188 12.5056 7.30188 12.225C6.45283 8.57687 9.56603 5.20938 13.3396 5.49001C13.8113 5.49001 14.0943 5.39647 14.283 5.0223C16.3585 2.12253 19.1887 0.719407 22.7736 1.00003C26.5472 1.28065 29.1887 3.24502 30.6981 6.70604C30.7925 6.98667 30.9811 7.08021 31.2641 7.17375C35.9811 7.64146 39.566 12.1314 39 16.715C38.434 21.2985 34.7547 24.5724 30.1321 24.5724C26.8302 24.5724 23.6226 24.5724 20.4151 24.5724ZM24.0943 18.9599C24.0943 18.8664 24 18.7729 24 18.5858C22.7736 16.1537 21.5472 13.7216 20.4151 11.2896C20.2264 11.0089 20.0377 10.7283 19.7547 10.7283C19.3774 10.7283 19.1887 10.9154 19.0943 11.196C17.8679 13.6281 16.6415 16.0602 15.5094 18.4922C15.3208 18.9599 15.4151 19.3341 15.7924 19.5212C16.1698 19.7083 16.5472 19.5212 16.8302 19.0535C17.1132 18.5858 17.3019 18.0245 17.5849 17.5568C17.6792 17.3697 17.7736 17.2762 18.0566 17.2762C19.283 17.2762 20.4151 17.2762 21.6415 17.2762C21.9245 17.2762 22.0189 17.3697 22.1132 17.5568C22.3962 18.1181 22.6792 18.6793 22.9623 19.2406C23.1509 19.5212 23.434 19.7083 23.8113 19.6147C23.9057 19.6147 24.0943 19.3341 24.0943 18.9599ZM26.2642 15.2183C26.2642 14.0023 26.2642 12.7862 26.2642 11.5702C26.2642 11.0089 25.9811 10.7283 25.6038 10.7283C25.1321 10.7283 24.8491 11.0089 24.8491 11.5702C24.8491 14.0023 24.8491 16.4343 24.8491 18.8664C24.8491 19.4276 25.1321 19.7083 25.6038 19.7083C26.0755 19.7083 26.2642 19.4276 26.2642 18.8664C26.2642 17.6504 26.2642 16.4343 26.2642 15.2183Z" fill="#2AB4AE"/>
<path d="M29.6604 38.8841C30.4151 38.1358 31.1698 37.3875 31.9246 36.6391C31.4529 35.9844 30.8868 35.236 30.3208 34.5812C30.0378 34.2071 30.0378 33.9265 30.2264 33.4587C30.6038 32.7104 30.8868 31.9621 31.1698 31.2138C31.3585 30.746 31.5472 30.559 32.0189 30.559C32.868 30.4654 33.717 30.3719 34.6604 30.1848C34.6604 29.0623 34.6604 27.9398 34.6604 26.9109C34.6604 26.7238 34.6604 26.6302 34.6604 26.4432C34.6604 25.9754 34.9434 25.6948 35.4151 25.6948C35.7925 25.6948 36.0755 25.9754 36.0755 26.4432C36.0755 27.285 36.0755 28.0334 36.0755 28.8752C36.0755 29.4365 36.0755 29.9977 36.0755 30.6525C36.0755 31.3073 35.8868 31.4944 35.3208 31.5879C34.4717 31.6815 33.717 31.8685 32.868 31.9621C32.5849 31.9621 32.4906 32.0556 32.3963 32.3362C32.2076 32.804 32.0189 33.3652 31.7359 33.8329C31.6415 34.02 31.6415 34.2071 31.8302 34.3942C32.3019 35.0489 32.868 35.7037 33.3397 36.3585C33.717 36.8262 33.717 37.1068 33.2453 37.5746C32.3019 38.51 31.3585 39.5389 30.3208 40.4743C29.9434 40.8485 29.6604 40.942 29.1887 40.5679C28.5283 40.1002 27.868 39.5389 27.2076 39.0712C27.0189 38.8841 26.8302 38.8841 26.6415 38.9777C26.1698 39.1648 25.6038 39.4454 25.1321 39.6325C24.8491 39.726 24.7547 39.8195 24.7547 40.1002C24.6604 40.942 24.5661 41.7839 24.3774 42.5322C24.2831 43.0935 24.0944 43.2806 23.5283 43.2806C22.1132 43.2806 20.7925 43.2806 19.3774 43.2806C18.8114 43.2806 18.6227 43.0935 18.5283 42.5322C18.434 41.6904 18.2453 40.8485 18.151 40.1002C18.151 39.8195 18.0566 39.726 17.7736 39.6325C17.3019 39.4454 16.8302 39.2583 16.3585 39.0712C16.0755 38.9777 15.8868 38.9777 15.6981 39.1648C15.0378 39.6325 14.3774 40.1002 13.717 40.6614C13.2453 41.0356 12.9623 41.0356 12.4906 40.5679C11.5472 39.6325 10.6038 38.6971 9.66041 37.7616C9.18871 37.2939 9.18871 37.0133 9.56607 36.5456C10.0378 35.8908 10.5095 35.236 11.0755 34.5812C11.2642 34.3942 11.2642 34.2071 11.1698 34.02C10.9812 33.5523 10.6981 33.0846 10.6038 32.5233C10.5095 32.2427 10.4151 32.1492 10.1321 32.1492C9.28305 32.0556 8.43399 31.9621 7.67928 31.775C7.20758 31.6815 7.0189 31.4944 6.92456 31.0267C6.92456 29.6236 6.92456 28.2204 6.92456 26.8173C6.92456 26.3496 7.20758 26.069 7.67928 26.069C8.05664 26.069 8.33965 26.3496 8.33965 26.8173C8.33965 28.0334 8.33965 29.2494 8.33965 30.4654C9.18871 30.559 10.0378 30.746 10.8868 30.8396C11.4529 30.9331 11.6415 31.1202 11.8302 31.5879C12.1132 32.3363 12.3963 33.0846 12.7736 33.8329C12.9623 34.2071 12.9623 34.5812 12.6793 34.9554C12.1132 35.6102 11.6415 36.3585 11.1698 36.9198C11.9246 37.6681 12.6793 38.4164 13.434 39.1648C14.0944 38.6971 14.7547 38.2293 15.4151 37.6681C15.7925 37.3875 16.1698 37.3875 16.5472 37.5746C17.3019 37.9487 17.9623 38.2293 18.717 38.51C19.1887 38.6971 19.4717 38.9777 19.5661 39.4454C19.6604 40.2873 19.7547 41.1291 19.9434 41.971C20.9812 41.971 22.0189 41.971 23.151 41.971C23.2453 41.1291 23.434 40.3808 23.5283 39.5389C23.6227 38.9777 23.8114 38.6971 24.3774 38.51C25.1321 38.3229 25.7925 37.9487 26.5472 37.5746C27.0189 37.3875 27.3019 37.3875 27.6793 37.6681C28.2453 37.8552 29 38.3229 29.6604 38.8841Z" fill="#2AB4AE"/>
<path d="M21.5473 35.0488C17.019 35.0488 13.8114 30.6524 15.2265 26.443C15.2265 26.3495 15.2265 26.3495 15.3208 26.2559C15.5095 25.6947 15.8869 25.5076 16.2642 25.6947C16.6416 25.8817 16.8303 26.2559 16.6416 26.7236C15.8869 28.9686 16.5473 31.2136 18.434 32.6167C20.2265 33.9263 22.7737 33.9263 24.5661 32.6167C26.4529 31.3071 27.1133 28.9686 26.4529 26.8172C26.3586 26.5365 26.3586 26.2559 26.4529 26.0688C26.5473 25.8817 26.9246 25.6947 27.1133 25.6947C27.3963 25.6947 27.6793 25.9753 27.7737 26.1624C28.3397 27.5655 28.3397 29.0622 27.868 30.4653C26.9246 33.178 24.3774 35.0488 21.5473 35.0488Z" fill="#2AB4AE"/>
<path d="M18.2454 15.9667C18.7171 15.0313 19.1888 14.0958 19.6605 13.0669C20.1322 14.0958 20.6039 15.0313 21.0756 15.9667C20.1322 15.9667 19.1888 15.9667 18.2454 15.9667Z" fill="#2AB4AE"/>
</g>
<defs>
<clipPath id="clip0_29_45">
<rect width="35" height="42" fill="white" transform="translate(4 1)"/>
</clipPath>
</defs>
</svg>
