<svg width="44" height="44" viewBox="0 0 44 44" fill="none" xmlns="http://www.w3.org/2000/svg">
<g clip-path="url(#clip0_29_87)">
<path d="M21.4032 31.0658C20.2655 31.0658 18.6057 30.7447 17.0204 30.0837C16.8526 30.0081 16.5542 30.027 16.3863 30.1214C15.3419 30.7258 14.3162 31.368 13.2904 32.0101C13.0666 32.1612 12.8242 32.2934 12.5817 32.0479C12.3393 31.8023 12.4698 31.5568 12.6004 31.3302C13.0666 30.4614 13.5142 29.5926 14.0178 28.7427C14.1856 28.4594 14.1483 28.3083 13.9059 28.0817C12.5071 26.8163 11.5 25.2864 11.1083 23.4167C10.5302 20.6025 11.3135 18.1473 13.1972 16.0509C15.0062 14.0489 17.3188 12.9346 19.9485 12.5379C23.1936 12.0469 26.2522 12.6135 28.9938 14.5022C30.952 15.8431 32.3508 17.6373 32.8357 20.0171C33.4698 23.0389 32.5186 25.5886 30.4112 27.7228C28.3224 29.8948 25.2265 31.1035 21.4032 31.0658ZM21.4032 24.3043C21.4032 24.4743 21.4032 24.6632 21.4032 24.8332C21.4218 25.3431 21.6083 25.5886 22 25.5886C22.373 25.5886 22.6341 25.3242 22.5782 24.8143C22.429 23.7377 22.8206 23.0389 23.8091 22.6423C23.8277 22.6423 23.8277 22.6234 23.8464 22.6234C25.3384 21.698 25.8979 20.3759 25.5622 18.6572C25.2265 16.9008 23.5293 15.5787 21.7948 15.7109C19.8925 15.862 18.4005 17.354 18.3259 19.2049C18.3073 19.6771 18.4938 19.9415 18.8481 19.9982C19.2025 20.0359 19.4263 19.7904 19.4822 19.3371C19.4822 19.2616 19.5009 19.186 19.5009 19.1105C19.6501 17.9584 20.5266 17.0519 21.6083 16.9196C22.802 16.7686 23.9023 17.4485 24.294 18.5439C24.7043 19.6771 24.3313 20.8481 23.3428 21.528C23.1377 21.6602 22.9325 21.8113 22.7087 21.9246C21.7948 22.4346 21.2353 23.1523 21.4032 24.3043ZM22.0186 28.3461C22.4476 28.3461 22.7833 27.9684 22.7833 27.5528C22.7833 27.1373 22.429 26.7785 22 26.7974C21.571 26.7974 21.2353 27.1562 21.2353 27.5906C21.2353 28.0061 21.5897 28.3461 22.0186 28.3461Z" fill="#2AB4AE"/>
<path d="M8.53461 22.7743C8.53461 24.1531 8.53461 25.5318 8.53461 26.9105C8.53461 28.3459 7.71401 29.1958 6.2966 29.1769C5.5506 29.1769 4.80459 29.2147 4.07724 29.1014C2.28683 28.8181 1.03728 27.3071 1.01863 25.4751C0.999976 23.662 0.999976 21.83 1.01863 20.0169C1.03728 17.996 2.56658 16.4095 4.56214 16.334C5.2149 16.3151 5.86765 16.3151 6.5204 16.334C7.67671 16.3718 8.51596 17.2406 8.51596 18.4493C8.53461 19.8847 8.53461 21.3201 8.53461 22.7743Z" fill="#2AB4AE"/>
<path d="M35.4656 22.7554C35.4656 21.3578 35.4656 19.9601 35.4656 18.5625C35.4656 17.1649 36.3048 16.315 37.7036 16.315C38.4309 16.315 39.1583 16.2961 39.867 16.3906C41.6201 16.6172 42.9442 18.1093 42.9629 19.8846C43.0002 21.7922 43.0002 23.6997 42.9629 25.6073C42.9256 27.5337 41.3403 29.1013 39.438 29.158C38.8226 29.1768 38.1885 29.1768 37.573 29.158C36.3421 29.1391 35.4842 28.2892 35.4656 27.0615C35.4469 25.645 35.4656 24.1908 35.4656 22.7554Z" fill="#2AB4AE"/>
<path d="M7.67691 15.2761C7.26661 15.2006 6.91226 15.125 6.50195 15.0495C6.5952 13.9541 6.819 12.8775 7.22931 11.8576C9.26217 6.70157 13.0108 3.71747 18.4753 3.18865C21.0863 2.94312 23.7346 2.92423 26.3456 3.26419C31.605 3.94411 36.1183 8.19362 37.2373 13.4819C37.3492 13.9918 37.4238 14.5207 37.5171 15.0495C37.0881 15.125 36.7151 15.2006 36.398 15.2761C36.0996 14.1807 35.9131 13.0664 35.4842 12.0276C33.5073 7.26817 29.9265 4.69958 24.8536 4.37851C22.7462 4.2463 20.6201 4.28408 18.494 4.43517C13.3465 4.73736 8.87051 8.85465 7.88206 13.9918C7.80746 14.4073 7.75151 14.8417 7.67691 15.2761Z" fill="#2AB4AE"/>
<path d="M36.3607 30.2534C36.8083 30.329 37.1626 30.3856 37.5356 30.4612C38.1697 35.995 34.1973 39.7912 29.6093 39.7345C28.2106 39.7156 26.7932 39.7345 25.3944 39.7345C25.1333 39.7345 24.9655 39.7723 24.8349 40.0745C24.5738 40.6789 24.0703 40.981 23.4175 40.9999C22.4663 41.0188 21.5338 41.0188 20.5827 40.9999C19.6875 40.981 19.072 40.3389 18.9974 39.4512C18.8296 37.7892 19.818 37.1282 20.9743 37.2226C21.3287 37.2604 21.6644 37.2226 22.0187 37.2226C22.4477 37.2226 22.8953 37.2226 23.3243 37.2226C24.033 37.2226 24.5552 37.5437 24.8536 38.1858C24.9655 38.4502 25.1147 38.488 25.3571 38.488C26.8118 38.488 28.2665 38.488 29.7026 38.488C33.5445 38.4502 36.3607 35.5795 36.3607 31.6888C36.3607 31.2166 36.3607 30.7445 36.3607 30.2534Z" fill="#2AB4AE"/>
</g>
<defs>
<clipPath id="clip0_29_87">
<rect width="42" height="38" fill="white" transform="translate(1 3)"/>
</clipPath>
</defs>
</svg>
