<svg width="24" height="24" viewBox="0 0 24 24" fill="none" xmlns="http://www.w3.org/2000/svg">
<path d="M9.49633 9.49633L9.08333 9.08333M14.9213 14.9213L14.5083 14.5083M9.08333 14.9167L14.9167 9.08333M7.10583 2.04717C7.52 1.63417 7.8595 1.5 8.4265 1.5H15.5735C16.1405 1.5 16.4812 1.63417 16.8942 2.04717L21.9528 7.10583C22.3658 7.51883 22.5 7.8595 22.5 8.4265V15.5735C22.5 16.1568 22.3542 16.4928 21.9528 16.8942L16.8942 21.9528C16.4812 22.3658 16.1405 22.5 15.5735 22.5H8.4265C7.84317 22.5 7.50717 22.3542 7.10583 21.9528L2.04833 16.8942C1.63417 16.48 1.5 16.1405 1.5 15.5735V8.4265C1.5 7.84317 1.64583 7.50717 2.04717 7.10583L7.10583 2.04717Z" stroke="black" stroke-width="1.5" stroke-linecap="round" stroke-linejoin="round"/>
</svg>
