<svg width="26" height="26" viewBox="0 0 26 26" fill="none" xmlns="http://www.w3.org/2000/svg">
<path d="M14.625 24.9166H4.875C2.78417 24.9166 1.08333 23.2157 1.08333 21.1248V4.87412C1.08333 2.7832 2.78417 1.0823 4.875 1.0823H10.8496C11.2114 1.0823 11.5678 1.1148 11.9167 1.17763V7.04088C11.9167 8.53486 13.1311 9.74932 14.625 9.74932C14.625 9.74932 20.9517 9.76016 21.0568 9.73199C21.3471 9.65832 21.5215 9.36256 21.4468 9.0733C21.1337 7.84908 20.4967 6.72995 19.6029 5.83724L15.8286 2.06275C14.4983 0.732364 12.7303 4.0227e-07 10.8485 4.0227e-07H4.87392C2.18725 -0.00108298 0 2.18626 0 4.87412V21.1248C0 23.8127 2.18725 26 4.875 26H14.625C14.924 26 15.1667 25.7573 15.1667 25.4583C15.1667 25.1593 14.924 24.9166 14.625 24.9166ZM13 1.48098C13.7648 1.77674 14.4658 2.23176 15.0627 2.8287L18.837 6.60319C19.4253 7.19147 19.8813 7.89566 20.1803 8.66595H14.6239C13.728 8.66595 12.9989 7.93683 12.9989 7.04088V1.48098H13ZM11.9167 15.7079C11.9167 16.0069 11.674 16.2496 11.375 16.2496H4.875C4.576 16.2496 4.33333 16.0069 4.33333 15.7079C4.33333 15.4089 4.576 15.1662 4.875 15.1662H11.375C11.674 15.1662 11.9167 15.4089 11.9167 15.7079ZM11.9167 20.0414C11.9167 20.3404 11.674 20.5831 11.375 20.5831H4.875C4.576 20.5831 4.33333 20.3404 4.33333 20.0414C4.33333 19.7424 4.576 19.4997 4.875 19.4997H11.375C11.674 19.4997 11.9167 19.7424 11.9167 20.0414ZM24.804 12.9247L20.2118 11.4026C20.1012 11.3668 19.981 11.3668 19.8716 11.4026L15.2783 12.9247C14.5643 13.163 14.0833 13.8272 14.0833 14.5779V18.8215C14.0833 22.7358 18.2737 25.1365 19.5574 25.7801C19.5574 25.7801 19.8218 25.9588 20.0427 25.9588C20.2638 25.9588 20.4967 25.818 20.4967 25.818C21.788 25.2991 26 23.258 26 18.8215V14.5779C26 13.8272 25.5201 13.162 24.804 12.9247ZM24.9167 18.8215C24.9167 22.5787 21.1998 24.3673 20.0666 24.8235C18.9226 24.2514 15.1667 22.115 15.1667 18.8215V14.5779C15.1667 14.2941 15.3487 14.0428 15.6195 13.9528L20.0417 12.4859L24.4627 13.9528C24.7347 14.0428 24.9167 14.2941 24.9167 14.5779V18.8215ZM11.9167 11.3744C11.9167 11.6734 11.674 11.9161 11.375 11.9161H4.875C4.576 11.9161 4.33333 11.6734 4.33333 11.3744C4.33333 11.0754 4.576 10.8327 4.875 10.8327H11.375C11.674 10.8327 11.9167 11.0754 11.9167 11.3744Z" fill="black"/>
</svg>
