<svg width="24" height="24" viewBox="0 0 24 24" fill="none" xmlns="http://www.w3.org/2000/svg">
<path d="M23.961 10.306V10.304L20.536 2.17C20.352 1.734 20.035 1.391 19.653 1.157C19.607 1.108 19.551 1.066 19.484 1.038C19.458 1.027 19.43 1.028 19.402 1.022C18.954 0.821 18.442 0.763 17.941 0.897L12.501 2.346V0.5C12.501 0.224 12.277 0 12.001 0C11.725 0 11.501 0.224 11.501 0.5V2.613L5.778 4.137C4.736 4.414 3.866 5.173 3.45 6.166L0.039 14.307C0.013 14.369 0 15.293 0 15.293C0 17.723 1.8 19.783 4.099 19.982C4.236 19.994 4.371 20 4.506 20C5.635 20 6.7 19.588 7.54 18.817C8.468 17.966 9 16.757 9 15.5C9 15.5 8.985 14.361 8.957 14.297L5.088 5.592C5.363 5.365 5.685 5.196 6.035 5.103L11.5 3.647V23H4.5C4.224 23 4 23.224 4 23.5C4 23.776 4.224 24 4.5 24H19.5C19.776 24 20 23.776 20 23.5C20 23.224 19.776 23 19.5 23H12.5V3.382L18.198 1.865C18.335 1.828 18.473 1.821 18.607 1.833L15.039 10.307C15.013 10.368 15 11.293 15 11.293C15 13.723 16.8 15.783 19.099 15.982C19.236 15.994 19.371 16 19.506 16C20.635 16 21.7 15.588 22.54 14.817C23.468 13.966 24 12.757 24 11.5C24 11.5 23.988 10.37 23.961 10.306ZM8 15.5C8 16.479 7.586 17.419 6.864 18.081C6.133 18.752 5.186 19.073 4.185 18.987C2.399 18.832 0.999 17.209 0.999 15.293V15.001H7.999V15.501L8 15.5ZM7.731 14H1.252L4.372 6.553L4.396 6.497L7.731 14ZM19.475 2.347C19.523 2.416 19.58 2.478 19.613 2.558L22.746 9.999H16.252L19.474 2.346L19.475 2.347ZM23 11.5C23 12.479 22.586 13.419 21.864 14.081C21.133 14.751 20.185 15.076 19.185 14.987C17.399 14.832 15.999 13.209 15.999 11.293V11.001H22.999V11.501L23 11.5Z" fill="black"/>
</svg>
