<svg width="20" height="26" viewBox="0 0 20 26" fill="none" xmlns="http://www.w3.org/2000/svg">
<path d="M20 7.04167C20 7.345 19.7556 7.58333 19.4444 7.58333H15.5556C15.5556 11.765 12.0667 15.1667 7.77778 15.1667H2.08889L14.2444 25.0467C14.4778 25.2417 14.5111 25.5775 14.3111 25.805C14.2 25.935 14.0444 26 13.8889 26C13.7667 26 13.6333 25.9567 13.5333 25.87L0.2 15.0367C0.0222223 14.8958 -0.0444445 14.6467 0.0333333 14.4408C0.111111 14.2242 0.322222 14.0833 0.555556 14.0833H7.77778C11.4556 14.0833 14.4444 11.1692 14.4444 7.58333H0.555556C0.244444 7.58333 0 7.345 0 7.04167C0 6.73833 0.244444 6.5 0.555556 6.5H14.3556C13.8222 3.43417 11.0778 1.08333 7.77778 1.08333H0.555556C0.244444 1.08333 0 0.845 0 0.541667C0 0.238333 0.244444 0 0.555556 0H19.4444C19.7556 0 20 0.238333 20 0.541667C20 0.845 19.7556 1.08333 19.4444 1.08333H11.7778C13.7333 2.23167 15.1333 4.20333 15.4778 6.5H19.4444C19.7556 6.5 20 6.73833 20 7.04167Z" fill="black"/>
</svg>
