<svg width="24" height="24" viewBox="0 0 24 24" fill="none" xmlns="http://www.w3.org/2000/svg">
<path d="M24.001 0.5V23.5C24.001 23.776 23.777 24 23.501 24C23.225 24 23.001 23.776 23.001 23.5V11.994C23.001 11.994 23.001 11.996 23.001 11.997C23.001 11.998 23.001 11.999 23.001 12C23.001 12.069 22.987 12.134 22.962 12.193C22.917 12.502 22.802 12.802 22.564 13.04L19.36 16.348C19.261 16.45 19.131 16.5 19.001 16.5C18.876 16.5 18.75 16.453 18.653 16.359C18.455 16.167 18.45 15.85 18.641 15.652L21.695 12.5H2.306L5.36 15.652C5.551 15.85 5.547 16.167 5.348 16.359C5.251 16.453 5.125 16.5 5 16.5C4.869 16.5 4.739 16.449 4.641 16.348L1.431 13.035C1.177 12.781 1.055 12.453 1.024 12.118C1.014 12.079 1 12.042 1 12.001C1 12 1 11.999 1 11.998C1 11.997 1 11.996 1 11.995V23.501C1 23.777 0.776 24.001 0.5 24.001C0.224 24.001 0 23.777 0 23.501V0.5C0.001 0.224 0.225 0 0.501 0C0.777 0 1.001 0.224 1.001 0.5V11.964C1.006 11.586 1.149 11.208 1.438 10.919L4.644 7.649C4.839 7.454 5.154 7.45 5.352 7.642C5.548 7.835 5.552 8.153 5.359 8.35L2.27 11.499H21.734L18.644 8.35C18.451 8.153 18.455 7.835 18.651 7.642C18.849 7.45 19.166 7.454 19.359 7.649L22.569 10.921C22.856 11.208 22.999 11.586 23.002 11.965V0.5C23.002 0.224 23.226 0 23.502 0C23.778 0 24.001 0.224 24.001 0.5Z" fill="black"/>
</svg>
