<svg width="28" height="28" viewBox="0 0 28 28" fill="none" xmlns="http://www.w3.org/2000/svg">
<path d="M1 11.2727C1 10.9716 1.24267 10.7273 1.54167 10.7273H6.95833C7.25733 10.7273 7.5 10.9716 7.5 11.2727C7.5 11.5738 7.25733 11.8182 6.95833 11.8182H1.54167C1.24267 11.8182 1 11.5738 1 11.2727ZM27 12.3636V17.8182C27 19.4502 25.9773 20.8465 24.543 21.392C24.7337 21.8109 24.8333 22.2625 24.8333 22.7273C24.8333 24.5316 23.3752 26 21.5833 26C19.7915 26 18.3333 24.5316 18.3333 22.7273C18.3333 22.352 18.3983 21.9844 18.524 21.6364H9.476C9.60167 21.9844 9.66667 22.352 9.66667 22.7273C9.66667 24.5316 8.2085 26 6.41667 26C4.62483 26 3.16667 24.5316 3.16667 22.7273C3.16667 22.2625 3.26633 21.8109 3.457 21.392C2.02267 20.8465 1 19.4502 1 17.8182V14.5455C1 14.2444 1.24267 14 1.54167 14C1.84067 14 2.08333 14.2444 2.08333 14.5455V17.8182C2.08333 19.3215 3.29775 20.5455 4.79167 20.5455H18.3333V6.90909C18.3333 4.80364 16.6325 3.09091 14.5417 3.09091C14.2427 3.09091 14 2.84655 14 2.54545C14 2.24436 14.2427 2 14.5417 2C17.2294 2 19.4167 4.20255 19.4167 6.90909V7.45455H22.125C24.8127 7.45455 27 9.65709 27 12.3636ZM19.4167 8.54545V14H25.9167V12.3636C25.9167 10.2582 24.2158 8.54545 22.125 8.54545H19.4167ZM8.28325 21.6364H4.79167C4.71258 21.6364 4.6335 21.6331 4.55442 21.6287C4.354 21.9658 4.25 22.34 4.25 22.7273C4.25 23.9305 5.22175 24.9091 6.41667 24.9091C7.61158 24.9091 8.58333 23.9305 8.58333 22.7273C8.58333 22.3433 8.48042 21.9713 8.28325 21.6364ZM23.4456 21.6287C23.3676 21.6342 23.2885 21.6364 23.2083 21.6364H19.7168C19.5196 21.9713 19.4167 22.3433 19.4167 22.7273C19.4167 23.9305 20.3884 24.9091 21.5833 24.9091C22.7783 24.9091 23.75 23.9305 23.75 22.7273C23.75 22.34 23.6449 21.9658 23.4456 21.6287ZM25.9167 17.8182V15.0909H19.4167V20.5455H23.2083C24.7023 20.5455 25.9167 19.3215 25.9167 17.8182ZM1.54167 3.09091H11.2917C11.5907 3.09091 11.8333 2.84655 11.8333 2.54545C11.8333 2.24436 11.5907 2 11.2917 2H1.54167C1.24267 2 1 2.24436 1 2.54545C1 2.84655 1.24267 3.09091 1.54167 3.09091ZM1.54167 7.45455H9.125C9.424 7.45455 9.66667 7.21018 9.66667 6.90909C9.66667 6.608 9.424 6.36364 9.125 6.36364H1.54167C1.24267 6.36364 1 6.608 1 6.90909C1 7.21018 1.24267 7.45455 1.54167 7.45455Z" fill="black"/>
</svg>
