<svg width="18" height="22" viewBox="0 0 18 22" fill="none" xmlns="http://www.w3.org/2000/svg">
<path d="M0.833252 20.3332V19.1665C0.833252 17.0006 1.69367 14.9233 3.22521 13.3918C4.75676 11.8603 6.83398 10.9998 8.99992 10.9998M8.99992 10.9998C11.1659 10.9998 13.2431 11.8603 14.7746 13.3918C16.3062 14.9233 17.1666 17.0006 17.1666 19.1665V20.3332M8.99992 10.9998C10.2376 10.9998 11.4246 10.5082 12.2998 9.633C13.1749 8.75783 13.6666 7.57085 13.6666 6.33317C13.6666 5.09549 13.1749 3.90851 12.2998 3.03334C11.4246 2.15817 10.2376 1.6665 8.99992 1.6665C7.76224 1.6665 6.57526 2.15817 5.70009 3.03334C4.82492 3.90851 4.33325 5.09549 4.33325 6.33317C4.33325 7.57085 4.82492 8.75783 5.70009 9.633C6.57526 10.5082 7.76224 10.9998 8.99992 10.9998Z" stroke="black" stroke-width="1.5" stroke-linecap="round" stroke-linejoin="round"/>
</svg>
